<?xml version="1.0" encoding="utf-8"?>
<!-- Generator: Adobe Illustrator 25.2.3, SVG Export Plug-In . SVG Version: 6.00 Build 0)  -->
<svg version="1.1" id="Layer_1" xmlns="http://www.w3.org/2000/svg" xmlns:xlink="http://www.w3.org/1999/xlink" x="0px" y="0px"
	 viewBox="0 0 1546.2 970.2" style="enable-background:new 0 0 1546.2 970.2;" xml:space="preserve">
<style type="text/css">
	.st0{fill:none;stroke:#EEEEEE;stroke-width:7.8545;stroke-miterlimit:3.9273;}
</style>
<g transform="rotate(-60 0 0) translate (-600 350) scale(0.5 0.5)">

<path vector-effect="non-scaling-stroke" class="st0" d="M553.8,229.8c33.1,66.5,62.6,135.2,94.3,202.3
	c10.4,22.1,20.3,45.5,32.4,66.8c8.4,18.6,18.4,39,33.4,53c12.7,15.3,36.2,19.2,55,15.7c17-3.5,32.4-12.8,47.1-21.6
	c22.6-14.8,46.4-28.8,68.7-44.2c109.6-74.3,28.3-133,83.5-218c23.9-38.6,68.9-63,113.9-65.8c20.8-3.1,43-0.7,63.8-2.9
	c25.2-1.9,50.4-7.8,74.6-14.7c40.7-12.9,80.1-31.8,118.8-49.1c21.6-12.8,50.5-18.2,61.8-42.2c11.3-26.8-0.1-51.1,37.3-60.9
	c13.9-3,27.4,2.6,40.3,5.9c13.1,3.3,26.3,4.4,39.3,3.9c18.3-4.3,27-25.2,10.8-39.3c-11.5-8.6-26.9-9.9-40.3-9.8
	c-232,7.4-465.2,4.3-697.1,7.9c-142.6,0.7-285,1.3-427.1,1c-18,0.6-31,14.7-28.5,32.4c8.3,16.1,16.1,35.2,3.9,51.1
	c-5.4,10.8-18.3,16.2-27.5,22.6c-17.6,11.7-37.3,20.6-53,34.4c-25.7,18.5-43.7,45.2-60.9,70.7c-28.2,42.3-48.9,88.7-66.8,135.5
	C76.8,503.5,30.4,647.6,17.8,796.4c-3.4,34-8.9,67.1-8.8,100.1c5.4,33.9,25.6,33.9,54,35.3c28.5,8.7,32,28.9,63.8,29.4
	c19.5-0.4,38.7-7.5,56-13.8c19.1-6.5,38.7-18.1,43.2-38.3c5.5-32.4-20.2-64.7-36.3-90.3c-17.1-28.5-34.3-57.1-50.1-85.4
	c-51.1-84.4-26-206.2,59-257.2c20.8-16.1,55.5-37.2,74.6-9.8c7.6,12.5,9.3,27.2,13.7,40.3c5.5,23.9,28.1,41.8,52.1,39.2
	c19.7-2.1,39.3-9.6,56-18.7c36.3-18.6,31.1-65.1,14.7-95.3c-18.3-40.2-46.7-74.9-66.8-112.9c-17.8-28.2-37.2-65-19.6-96.2
	c5.2-15.7,17.8-27.5,28.5-38.3c9.3-11,19-22,28.5-31.4c24.5-28.2,55.9-71,97.2-53.9c27.5,13.9,39.4,45.5,50.1,71.7
	C535.2,191.5,545.1,210.2,553.8,229.8z"/>
</g>
</svg>
