<?xml version="1.0" encoding="utf-8"?>
<!-- Generator: Adobe Illustrator 25.2.3, SVG Export Plug-In . SVG Version: 6.00 Build 0)  -->
<svg version="1.1" id="Layer_1" xmlns="http://www.w3.org/2000/svg" xmlns:xlink="http://www.w3.org/1999/xlink" x="0px" y="0px"
	 viewBox="0 0 640 801" style="enable-background:new 0 0 640 801;" xml:space="preserve">
<style type="text/css">
	.st0{fill:none;stroke:#EEEEEE;stroke-width:8;}
</style>
<g transform="rotate(30 0 0) translate(20 0) scale (0.68 0.68)">
<path vector-effect="non-scaling-stroke" class="st0" d="M984,671c-96.7,28.8-194,56.8-291,85c-31,9.9-62.8,19-94,28
	c-31.7,12.5-55.5,10.9-78-17c-52.3-78.9-110.9-154.2-161-235c-46.9-75.7-81.3-158.4-125-236c-34.9-58.6-80.6-111.7-132-156
	c-22.1-21.7-44.4-42.9-67-63c-7.2-10.2-19.3-16.3-24-28C-0.4,26,24.8,14.7,44,14c47.6-7.7,96.6-5.6,144-1c107.4,4.4,214,23.9,320,38
	c84.8,14.8,171.1,11,256,14c48,0.5,53.6,47.9,29,80c-20.8,28.4-51.8,48.6-84,61c-69,30.5-138.2,12.2-208-1c-42.4-7.2-96-10-123,29
	c-48.7,66.2,10.7,129.8,42,187c39.6,67.4,112.3,84.6,163,19.9c62.7-80.6,151.9-87.8,246-89c82.9-4.1,165.4-6.2,247-11
	c48.1-3.5,105.5-8.6,137,34c22.4,25,30.5,59.1,42,89c10.4,31.1,24.8,68.3,4,97c-27.3,42-87.4,52.3-131,68
	C1079.7,643.8,1032.3,658.7,984,671z"/>
</g>
</svg>
