<?xml version="1.0" encoding="utf-8"?>
<!-- Generator: Adobe Illustrator 25.2.3, SVG Export Plug-In . SVG Version: 6.00 Build 0)  -->
<svg version="1.1" id="Layer_1" xmlns="http://www.w3.org/2000/svg" xmlns:xlink="http://www.w3.org/1999/xlink" x="0px" y="0px"
	 viewBox="0 0 806 957.7" style="enable-background:new 0 0 806 957.7;" xml:space="preserve">
<style type="text/css">
	.st0{fill:none;stroke:#374151;stroke-width:8.32;stroke-miterlimit:2.16;}
</style>
<g transform="translate (0 6) scale(0.96 0.96)">
<path vector-effect="non-scaling-stroke" class="st0" d="M339.8,729.7c-40-38.1-80.3-76.5-119.9-115c-36-28.3-14.2-44-14.6-79.4
	c-0.2-35.8-34-55.2-57.2-77.2C93.1,407.6,44.4,349,9.9,282.6c-6.7-12,0.3-26.5,13.5-29.7c16-1.9,34.1,2.6,47.5-8.6
	c34.1-28.1-8.5-72.6,9.2-117.7c18.9-48.3,103.4-71.2,145.8-96.1c19.9-9.1,40.2-32.6,62.6-18.9c8.8,5.8,16.9,13,26.5,16.7
	c14.3,7.5,30.7,8.3,45.9,11.9c24.1,3.9,46.9,15.7,62.6,34c23.5,28.7,30.4,67,37.3,102.1c4.2,22.9,11.2,45.7,12.4,68.6
	c-2.5,21.8-31.5,18.5-46.4,50.8c-7.9,17-7.7,36.1-10.3,54c-8.3,52.2-5.6,108.5,22.1,154.4c18.6,30.7,45.3,56.1,72.4,78.3
	c22.6,20.8,40.5,29.6,70.7,21.6c25.7-4.6,51.4,6.7,69.7,23.3c32.8,25.9,63.8,55.2,88,88.6c19.4,30.4,27.4,65.5,38.9,98.3
	c5.4,17.4,10.7,34.2,16.2,50.8c5.2,14.9,7.5,31.8-4.9,43.2c-7.4,7.5-17.8,11.4-27,14.6c-10,4.5-20.2,8.5-29.7,12.4
	c-30.9,13.7-61,27.2-88-1.1c-15.9-14.9-36.9-97.8-62.1-87.4c-12.5,7.5-16.1,23.3-25.9,32.9c-32.2,27.7-64,1.5-86.4-23.8
	C425.9,813.9,383.7,771.2,339.8,729.7z"/>
</g>
</svg>
