<?xml version="1.0" encoding="utf-8"?>
<!-- Generator: Adobe Illustrator 25.2.3, SVG Export Plug-In . SVG Version: 6.00 Build 0)  -->
<svg version="1.1" id="Layer_1" xmlns="http://www.w3.org/2000/svg" xmlns:xlink="http://www.w3.org/1999/xlink" x="0px" y="0px"
	 viewBox="0 0 548.7 976.8" style="enable-background:new 0 0 548.7 976.8;" xml:space="preserve">
<style type="text/css">
	.st0{fill:none;stroke:#EEEEEE;stroke-width:7.2048;stroke-miterlimit:2.6024;}
</style>
<g transform="rotate(-45 0 0) translate(-550 297) scale(0.61 0.61)">

<path vector-effect="non-scaling-stroke" class="st0" d="M1163.7,295.2c48.2-20,97.7-37.6,145.7-57.9c57.7-15.7,44.5-49.7,22.8-93
	c-11.7-27-23.5-54.2-35.1-81.3c-7.3-15.4-12-32.8-21.5-46.8c-19.5-21.7-54.5,5.4-76.8,11.1c-33.6,14.3-68.4,25.8-102.1,39.7
	c-94.2,34.7-185,78.3-277.8,116.5c-22,10-46.1,16.8-65.7,31.2c-21.6,23.5,22.3,79.5,30.6,106c4,11,11.1,21.7,9.8,33.8
	c-6.5,21.5-34,23.9-52,31.2c-30.6,9.5-60.3,22.8-87.8,39c-17.5,11.4-53.6,23.2-46.2,49.5c10.4,22.5,5.1,35-15.6,46.8
	c-28,16.6-52.4,38.3-78.7,56.6c-29.1,23.6-59.9,44.6-88.5,67.7c-25.8,15.3-33.7-16.6-36.4-35.8c-3.6-13.8-6.6-27.9-11.1-41
	c-7.8-34.2-15.9-49.1-53.4-50.1c-30-0.3-22.5-27.5-42.9-38.4c-19.3-9.1-39.7,4.8-57.9,9.8c-36.4,14-71.4,31.8-106,48.8
	C40.7,573,19.6,634.6,8.9,712.2c-3.5,42,2.1,83.8,0.7,125.6c0.7,30.8,3.8,34.1,31.9,48.1c19.4,9.4,38.3,20.5,57.3,29.9
	c24.5,12.9,48.6,27.2,72.9,39.7c23.9,15.2,45.6,22.6,63.1-5.2c14.3-26.1,23.2-55.3,39-80c27.6-42.2,75.5-64.3,105.4-103.4
	c26.2-33.2,22.7-79.2,48.1-111.9c26.9-33.6,65.3-55,97.6-81.3c57.9-46.3,126.4-74.3,193.9-100.8
	C866.9,411.8,1013.8,350.4,1163.7,295.2z"/>
</g>
</svg>
