<?xml version="1.0" encoding="utf-8"?>
<!-- Generator: Adobe Illustrator 25.2.3, SVG Export Plug-In . SVG Version: 6.00 Build 0)  -->
<svg version="1.1" id="Layer_1" xmlns="http://www.w3.org/2000/svg" xmlns:xlink="http://www.w3.org/1999/xlink" x="0px" y="0px"
	 viewBox="0 0 687.9 1004.4" style="enable-background:new 0 0 687.9 1004.4;" xml:space="preserve">
<style type="text/css">
	.st0{fill:none;stroke:#374151;stroke-width:6.6462;stroke-miterlimit:3.3231;}
</style>
<path vector-effect="non-scaling-stroke" class="st0" d="M21.6,617.3c6.8-135,11.8-270.3,17.4-405.4c1.7-41.7,3.7-83.8,5-125.4
	C46,65,43.4,42.6,49,21.6c3.7-12.8,18.5-17.2,29.1-9.1c9.2,9.2,17,20.3,27.4,28.2c13.9,9.4,31.8,13.6,48.2,9.1
	c16.1-2.3,31.5-10,47.4-14.1c32.8-7.6,66.2,0.8,98.9,5.8c83.6,16.7,167.7,32.1,251.7,47.4c26.7,5.2,53.8,10.3,80.6,15
	c37,5.2,58.9,21.1,41.5,60.6c-7.5,19.1-27.4,28-43.2,39c-17,9.4-32,22.8-45.7,36.6c-14.8,16.4-31.3,32.7-41.5,52.3
	c-12.1,18.3-19.9,40.3-39,52.3c-43.9,29.4-71.8-8.7-123.8,24.9c-19.8,13.6-34.6,32.7-47.4,52.3c-13.6,20.1-44.7,92.3-73.9,76.4
	c-23.6-15.1-12.7-46.1-8.3-68.1c6.2-26.6,13.9-53.1,17.4-79.8c8.1-49.4,25.8-100.9,10-149.5c-8.1-21.1-30.5-57.1-56.5-45.7
	c-11.1,11-10.1,28.5-12.5,42.4c-8.3,62.6-11.9,125.7-14.1,188.6c-3.1,77.7-5.5,155.5-10,232.6c-1.8,20.8-2.3,42-3.3,62.3
	c-2.3,21.5-1.9,46.9,15.8,61.5c34.4,27.1,85.6,10.2,111.3-20.8c30.1-37.5,32.3-92.2,70.6-123c42.7-39,103.2-33.7,151.2-9.1
	c25,12,53.3,23.3,69,46.6c16,23.6,10.1,53.8-10.9,71.4c-21.2,16.5-46.8,25.5-69,39c-54.7,29.8-108.8,60.4-162.8,89.7
	c-68.1,38.2-136.2,76.1-203.5,113.8c-18.5,9.5-35.9,20.2-53.2,29.9c-15.6,8.8-31.9,19.3-49.8,14.9c-59.3-18.6-39.3-119.6-39.8-167
	C14.5,757.4,15.3,687.5,21.6,617.3z"/>
</svg>
