<?xml version="1.0" encoding="utf-8"?>
<!-- Generator: Adobe Illustrator 25.2.3, SVG Export Plug-In . SVG Version: 6.00 Build 0)  -->
<svg version="1.1" id="Layer_1" xmlns="http://www.w3.org/2000/svg" xmlns:xlink="http://www.w3.org/1999/xlink" x="0px" y="0px"
	 viewBox="0 0 629.8 1000.5" style="enable-background:new 0 0 629.8 1000.5;" xml:space="preserve">
<style type="text/css">
	.st0{fill:none;stroke:#EEEEEE;stroke-width:6.8919;stroke-miterlimit:1.9459;}
</style>
<g transform="translate (0 4) scale(0.96 0.96)">

<path vector-effect="non-scaling-stroke" class="st0" d="M197.6,167c-21.7-33.2-42.4-67-64.2-100.2c-5.7-8.3-10.5-17.8-16.5-25.8
	c-4.2-8.6-13.6-16.9-9.7-27.2c6.2-10.8,17.4-6.2,26.8-1.9c9.1,4.9,18.5,9.7,27.7,14.6c31.1,17.7,64,34.2,89.5,59.8
	c31.3,29.2,56.8,64.6,88.5,93.4c48.9,38.7,59.8,38.5,77.8,102.6c19.2,47.5,58.3,83.6,81.7,128.9c16.6,32.4,24.6,68.2,37,102.2
	c25.6,68.7,47.7,139.3,70.5,208.7c3.9,10.7,6.8,21.9,10.7,32.1c3,10.1,6.9,20.5,4.4,30.6c-1.9,11.9-12.2,18.9-19,27.7
	c-6.2,8.9-6.8,20.1-4.9,30.2c3.5,10,8.7,19.3,10.2,29.7c1.1,14.8-4.8,30-16.1,39.4c-20.6,18.9-45.1,33.5-66.7,51.1
	c-14.2,10.3-27.2,22.9-43.3,29.2c-11.1,3.6-26.7,1.5-32.1-9.7c-10.3-21.5,12-37.5,28.7-45.2c43.2-19.8,42-47.4,22.8-85.6
	c-9.3-21.3-16.3-43.9-19.9-66.6c-5.2-23.1-9.3-46.5-14.6-69.1c-4-17.5-6.7-36.2-19-49.6c-27.4-33.7-82.7-29.2-111.4,0
	c-20.5,19.3-28.4,47.2-36,73c-7.7,26.9-16.6,53.6-26.3,79.3c-5.6,21.8-24.2,42.7-48.2,37.4c-7.4-0.8-13.6-5-19.9-7.8
	c-8.2-3.4-17.4-4.9-25.8-3.4c-30.6,4.3-40.7,36.9-52,60.8c-17.4,38.4-36.3,59.7-76.9,31.1c-20.3-13.4-41.1-29.9-43.8-55.5
	c-6.3-54.3,41.8-109,79.8-142.5c23.5-20.6,51.9-33.8,78.3-49.1c52.9-27.7,85.8-69.9,106-125c18.5-42.9,13.8-77.4-7.8-117.2
	c-16.9-36.3-32.5-73.4-38.4-112.9c-2.6-17.5-5.1-34.9-6.8-52.1c-1.7-9.4-2.4-23.4,8.8-26.3c4.6-1.8,9.7-0.2,14.1-1.9
	c18.1-13.1-9.6-35.3-17.5-46.7C214.7,194.3,205.8,180.8,197.6,167z"/>
</g>
</svg>
