<?xml version="1.0" encoding="utf-8"?>
<!-- Generator: Adobe Illustrator 25.2.3, SVG Export Plug-In . SVG Version: 6.00 Build 0)  -->
<svg version="1.1" id="Layer_1" xmlns="http://www.w3.org/2000/svg" xmlns:xlink="http://www.w3.org/1999/xlink" x="0px" y="0px"
	 viewBox="0 0 639.2 986.7" style="enable-background:new 0 0 639.2 986.7;" xml:space="preserve">
<style type="text/css">
	.st0{fill:none;stroke:#374151;stroke-width:7.513;stroke-miterlimit:3.7565;}
</style>
<path vector-effect="non-scaling-stroke" class="st0" d="M65.1,700.9c12.8,55.2,28.5,110.1,41.3,165.3
	c12.7,36.9,14.8,96.4,57.3,110.8c37.2,8.8,54.1-43.1,103.3-34.7c24.2,0.8,44.3,19.6,68.6,21.6c58.7,10.5,116-26.5,143.7-77
	c27.9-53.1,32.6-115.2,50.7-171.9c29.8-115.8,59.7-232.2,90.2-347.5c4.8-19.1,13.2-38.9,9.4-58.2c-7.8-40.7-51.2-62.2-89.2-62
	c-65-7.1-128.3,29.4-161.5,83.6c-28.4,47-58.8,92.9-90.2,137.1c-30.8,47.3-66.7,103.8-130.5,96.7c-54.4-6.3-84.3-55.4-91.1-105.2
	c-2.6-24.1-13.9-53.3,3.8-73.2c30-29.8,61.2,21.6,93.9,8.5c29-6.6,34.5-41.5,20.6-63.9c-17-26.3-44.7-44.3-60.1-71.4
	c-12.8-22.7-27.8-47-27.2-73.3c0.2-19.9,19.1-33.9,37.6-27.2c16.3,8,26.3,24.4,34.7,39.4c33.1,51.4,104.4,69.3,154,31
	c38-27.9,54.9-74.7,80.8-111.8c7.4-15,19.4-27.6,20.6-44.1c1.2-43.3-50.7-57-84.6-62.9C252.6,0.7,153,40,93.3,104.6
	C49.9,154,43.1,221.5,29.4,282.1c-12.2,65.4-26,131.6-18.8,197.2c4.4,38.1,15.5,74.9,24.4,110.8C45.6,627.5,52.9,664.7,65.1,700.9z"
	/>
</svg>
