<?xml version="1.0" encoding="utf-8"?>
<!-- Generator: Adobe Illustrator 25.2.3, SVG Export Plug-In . SVG Version: 6.00 Build 0)  -->
<svg version="1.1" id="Layer_1" xmlns="http://www.w3.org/2000/svg" xmlns:xlink="http://www.w3.org/1999/xlink" x="0px" y="0px"
	 viewBox="0 0 560.3 908.1" style="enable-background:new 0 0 560.3 908.1;" xml:space="preserve">
<style type="text/css">
	.st0{fill:none;stroke:#374151;stroke-width:6.6462;stroke-miterlimit:3.3231;}
</style>
<g transform="rotate(30 0 0) translate(150 -200) scale(0.7 0.7)">

<path vector-effect="non-scaling-stroke" class="st0" d="M602.3,729.4c-94.2,21.7-187.9,46.1-282.5,66.5
	c-46.6,10.2-93.8,29.1-142.1,24.9c-34.4-5.3-64.5-32.2-71.4-66.5c-3.4-18.8,1.5-39.9,15.8-53.2c17.3-15.9,46.7-14.6,55.7,9.1
	c5,14.2-3,29,0,43.2c3,16.3,22.8,29.6,37.4,18.3c46.1-32.3,12.9-96.9-17.4-128.8c-44.7-49-92.4-96.2-128.8-152
	c-21.4-38.3-35.4-81.2-49.9-122.1C14,355,6.9,341.4,8.3,326.5c3.4-25.7,35.7-19.4,49.9-6.6C82.9,338.2,98.1,367,113,393
	c25.2,43.7,42,93.3,76.4,130.4c29.3,30.6,77.2,36.6,115.5,22.4c35.5-14.2,60.1-44.8,72.3-79.8c9.7-25.1,25-49.8,50.7-59.8
	c30.6-10,66.2,2.6,83.1,29.9c11.9,18.2,14.5,42.2,31.6,56.5c24.1,21.7,57.4-4.3,66.5-28.3c9.1-21.1,5.7-44.5-3.3-64.8
	c-29.4-50-60.4-99.2-89.7-148.7c-18.9-30.4-37.8-61.2-55.7-91.4c-11.8-17.9-19.3-39.2-36.6-51.5c-31-14.9-38.4,43.9-81.4,21.6
	c-31.4-17.8-32.7-62-12.4-88.1c19.8-26.9,56-38.4,87.2-30.7c53.2,11.9,81.3,66,108.8,107.2c27.8,41,54.5,82.8,80.6,123.8
	c105.2,158.1,206.2,318.9,313.2,474.4c26.2,38.2,50.7,76.8,75.6,114.6c10.8,18.2,26.3,33.6,30.7,54c0.6,15.1-19.3,17.9-29.1,11.6
	c-29.6-15.5-47.4-45.1-64.8-71.5c-29.4-42.4-54.9-87.4-86.4-127.1c-27.9-32.4-58.6-19.7-93.1-11.6
	C701.8,699,652.7,716.3,602.3,729.4z"/>
</g>
</svg>
