<?xml version="1.0" encoding="utf-8"?>
<!-- Generator: Adobe Illustrator 25.2.3, SVG Export Plug-In . SVG Version: 6.00 Build 0)  -->
<svg version="1.1" id="Layer_1" xmlns="http://www.w3.org/2000/svg" xmlns:xlink="http://www.w3.org/1999/xlink" x="0px" y="0px"
	 viewBox="0 0 1744.6 1014.7" style="enable-background:new 0 0 1744.6 1014.7;" xml:space="preserve">
<style type="text/css">
	.st0{fill:none;stroke:#374151;stroke-width:6.5455;stroke-miterlimit:3.2727;}
</style>
<path vector-effect="non-scaling-stroke" class="st0" d="M896.8,567.9c-59.1-41.3-116.7-85.1-175.1-127.6
	c-21.6-16.9-44.3-33.7-67.1-49.1c-14.8-10.5-30.2-22.4-48.3-26.2c-53.6-9.4-61.8,41.2-118.6,31.9c-36.7-6-65.9-32.4-93.3-55.6
	c-30.4-24.5-61.7-49.2-96.5-67.1c-48.7-27.5-104.3-40.7-151.4-71.2c-14.4-7.4-25.3-21.9-31.1-36.8c-3.3-11.4-2.1-23.8-4.9-35.2
	c-1.3-18.4-19.7-32.6-37.6-31.9c-19.1-0.6-40.2,7.3-56.5-6.5C5.5,81.9,8.1,65,12.4,51.6c4.9-18.6,18.2-33.9,36-40.9
	c26.1-8.3,53.4,5.8,72.8,22.1c16,15.8,23.3,36.8,31.9,56.5c18.7,43.8,62.9,66.8,105.6,80.2c173,54.7,344.8,113.9,516.3,171.8
	c70.3,21.8,138.3,50.3,208.6,69.5c42.7,6.9,46-23.4,76.9-31.1c23-2.2,37.6,17.7,49.9,33.6c11.8,14.3,26.8,25.7,40.9,36.8
	c70.8,43,153.1,62.4,229.9,89.2c59.6,18.3,118.2,38.4,176.7,56.5c44,15.2,92.8,24.4,124.4,59.7c46.3,44.6,53.8,111,52.3,171
	c-0.6,35.3,6.3,71.2-2.5,104.7c-12.2,63.7-91.4,105.7-135.8,48.2c-30.5-41.4,4.1-91.8,34.4-121.1c25.4-30.1,54.6-71.9,38.4-111.3
	c-8.9-16.6-28.5-24.5-45.8-22.9c-17.4,2.5-31.4,12.3-45.8,19.6c-24.7,12.4-52.6,19.9-79.4,21.3c-77.6,4.6-108.8-37.9-167.7-72.8
	c-57.8-25-98,10.2-85.1,69.6c1.7,18.7-8.2,40.4-29.5,34.3c-13-4.7-22.9-14.8-33.5-22.1c-22.9-16.5-45.5-34.1-67.9-49.9
	C1042.1,671,969.8,619.4,896.8,567.9z"/>
</svg>
