<?xml version="1.0" encoding="utf-8"?>
<!-- Generator: Adobe Illustrator 25.2.3, SVG Export Plug-In . SVG Version: 6.00 Build 0)  -->
<svg version="1.1" id="Layer_1" xmlns="http://www.w3.org/2000/svg" xmlns:xlink="http://www.w3.org/1999/xlink" x="0px" y="0px"
	 viewBox="0 0 587 995.6" style="enable-background:new 0 0 587 995.6;" xml:space="preserve">
<style type="text/css">
	.st0{fill:none;stroke:#EEEEEE;stroke-width:7.5474;stroke-miterlimit:2.2737;}
</style>
<g transform="translate (0 4) scale(0.96 0.96)">
<path vector-effect="non-scaling-stroke" class="st0" d="M33.4,695.6c26.3-36.9,53-73.6,79.6-110.3c22.7-30.1,40.8-70.2,79-83
	c42.6-15.4,79.3,9.8,122.2-8.5c25.7-11.2,43.3-34.1,64.2-51.7c14.7-15.4,38.7-34.7,57.4-14.2c13.9,14.7,1.8,44,22.7,53.4
	c32,9.4,39.3-46.8,38.1-68.8c-1-31.9-21.9-58.3-46-77.3c-54.2-45.2-109-90.3-162-137c-24.3-19.8-46.2-43.9-72.8-60.3
	c-17.6-8.4-42.4-9.6-55.1,6.8c-14.8,15.4-7.2,39.3-17.1,56.8c-10.6,18-34.8,17.7-45.5,0.5c-9.1-12.2-7.1-28.8-2.3-42.1
	c18.4-43.7,45.5-87.6,88.1-110.3c36.9-19.3,79.4-21.7,119.4-28.4c27.7-4.9,56.1-6.6,83.6-10.2c31-4.7,64.3-7.5,90.9,11.4
	c64.9,43.6,44.2,182.2,62,252.9c10.1,39,34.5,70.1,22.2,112c-5.4,19.5-13.5,39.8-6.2,59.7c6.6,23.6,27.5,39.6,23.9,65.9
	c-3.6,38.9-42.5,48.8-64.8,74.5c-18.1,21.5-31.7,46.5-43.8,71.1c-34.5,72.2-66.8,145.2-102.3,216c-13.5,24.9-26.2,49.9-41.5,72.8
	c-15.1,28-44.4,49.1-76.2,38.6c-37.1-8.4-44.7-50.9-64.2-77.3c-17.3-24.4-37-46.4-56.3-68.2c-12.8-11.6-21.7-32.1-40.4-32.9
	c-9.9,1.3-15.4,10.4-23.9,13.6c-19.3,7.2-37.7-9-47.2-23.9C-3.6,759.8,8.4,727.4,33.4,695.6z"/>
</g>
</svg>
