<?xml version="1.0" encoding="utf-8"?>
<!-- Generator: Adobe Illustrator 25.2.3, SVG Export Plug-In . SVG Version: 6.00 Build 0)  -->
<svg version="1.1" id="Layer_1" xmlns="http://www.w3.org/2000/svg" xmlns:xlink="http://www.w3.org/1999/xlink" x="0px" y="0px"
	 viewBox="0 0 901.4 1016.1" style="enable-background:new 0 0 901.4 1016.1;" xml:space="preserve">
<style type="text/css">
	.st0{fill:none;stroke:#374151;stroke-width:7.6462;stroke-miterlimit:3.3231;}
</style>
<g transform="translate (0 4) scale(0.96 0.96)">
<path vector-effect="non-scaling-stroke" class="st0" d="M388.8,896.4C271.3,800.2,153.7,703.1,36.6,606.5
	c-11.8-8.8-25.3-18.6-28.2-34.1c-1.6-17.6,14-30,29.9-33.2c33-3.8,66.1,7.8,96.4,19.9c64.2,32,111.4,87.7,167.8,130.4
	c22.6,20.3,59.8,26,77.3-3.3c14.5-30.3-7.8-56.2-23.3-80.6c-26.6-51.2-5.3-94,20.8-139.6c22.6-40.8,44.3-82.3,67.3-123
	c15.2-27.2,32.3-54.7,51.5-78.9c18.6-25.1,39-49.4,34.9-82.2c-4.6-52.9-67.7-138.6,0.8-170.3c44.4-13.4,82.1,26.6,110.5,54.8
	c21.5,22.4,42.6,44.7,62.3,68.1c26.8,29.9-2.4,44.6-0.8,74.8c0,20.3,8.4,39.7,12.5,59c5.5,31.3,17.7,62.5,51.5,69.8
	c12.7,3,26,1.4,38.2,4.2c29.5,6.4,49.4,33.5,46.5,63.1c-6.9,49.5-31,89.4-10,140.4c11.6,27.1,33.4,48.2,44.9,74.8
	c11,29.3,7.1,66.1-15,88.9c-39.6,44-83.2,85.4-121.3,129.6c-19.1,17.6-57.7,74.6-81.4,72.2c-32.7,0.8-46.6-33.2-63.1-54.9
	c-14.6-20.2-32.4-38.1-52.4-51.5c-41.3-27.2-78.9,9.4-51.4,49.1c26.2,32.5,70.3,45.3,93.9,79.8c16.3,23.7,4.3,58.8-21.7,68.9
	c-26.8,11-57.1,1-78.1-16.7C460.2,956.2,425,926.4,388.8,896.4z"/>
</g>
</svg>
