<?xml version="1.0" encoding="utf-8"?>
<svg xmlns="http://www.w3.org/2000/svg" xmlns:xlink="http://www.w3.org/1999/xlink" preserveAspectRatio="xMidYMid meet" height="100%" viewBox="-350 -500 900 1000" class="mx-auto max-w-xs">
<g transform="rotate(-45 0 0) translate(100 100) scale(0.48 0.48)">
    <polygon vector-effect="non-scaling-stroke" fill="none" style="stroke: #EEEEEE; stroke-width:8" points=" 469,-351 463,-351 457,-351 451,-351 445,-351 439,-351 434,-351 428,-351 422,-351 416,-351 409,-351 403,-351 397,-351 391,-351 385,-351 379,-351 373,-351 367,-351 361,-351 355,-351 349,-351 343,-352 337,-352 330,-352 324,-352 318,-352 312,-352 306,-352 300,-352 294,-352 287,-352 281,-353 275,-353 269,-353 263,-353 257,-353 250,-353 244,-354 238,-354 232,-354 226,-354 220,-355 214,-355 209,-356 202,-356 196,-357 190,-358 184,-359 178,-360 172,-361 166,-362 159,-363 154,-364 148,-366 142,-367 136,-369 130,-370 123,-371 117,-373 111,-374 105,-376 99,-377 93,-378 87,-380 81,-381 75,-382 68,-384 62,-385 56,-386 50,-387 44,-389 38,-390 31,-391 25,-392 19,-393 13,-394 7,-395 0,-396 -6,-397 -12,-397 -18,-398 -25,-399 -31,-399 -37,-400 -44,-401 -50,-401 -56,-402 -62,-402 -69,-402 -75,-403 -81,-403 -88,-403 -94,-403 -100,-403 -107,-403 -113,-403 -119,-402 -126,-402 -132,-402 -138,-401 -144,-401 -151,-401 -157,-400 -163,-400 -170,-400 -176,-399 -182,-399 -189,-398 -194,-398 -201,-397 -207,-397 -213,-396 -220,-396 -226,-395 -232,-395 -239,-394 -245,-394 -251,-393 -258,-393 -264,-392 -270,-392 -277,-391 -283,-390 -289,-390 -296,-389 -302,-388 -307,-387 -313,-386 -319,-386 -325,-385 -330,-384 -335,-383 -340,-382 -345,-381 -350,-380 -354,-379 -359,-378 -363,-377 -368,-376 -372,-375 -376,-374 -380,-373 -383,-372 -387,-371 -390,-370 -394,-369 -397,-368 -400,-367 -403,-366 -406,-366 -408,-365 -411,-364 -413,-363 -416,-362 -418,-361 -420,-359 -423,-358 -425,-357 -427,-356 -429,-354 -431,-353 -432,-351 -434,-350 -436,-348 -437,-346 -439,-344 -440,-343 -441,-341 -442,-339 -443,-337 -444,-335 -446,-331 -448,-327 -449,-322 -450,-318 -452,-314 -453,-310 -455,-306 -456,-303 -457,-301 -458,-299 -459,-298 -461,-296 -462,-294 -463,-292 -465,-290 -466,-289 -468,-287 -469,-285 -471,-284 -473,-282 -475,-280 -477,-279 -478,-277 -480,-276 -483,-274 -485,-273 -487,-271 -489,-270 -491,-268 -494,-267 -496,-266 -499,-264 -501,-263 -504,-262 -506,-260 -509,-259 -512,-258 -515,-257 -517,-255 -520,-254 -523,-253 -526,-251 -529,-250 -532,-249 -535,-247 -538,-246 -541,-244 -544,-243 -547,-241 -550,-239 -553,-237 -556,-235 -559,-233 -562,-231 -565,-229 -568,-227 -570,-224 -573,-222 -576,-219 -578,-216 -581,-213 -583,-210 -585,-207 -588,-204 -590,-201 -592,-198 -594,-195 -596,-191 -597,-188 -599,-184 -601,-181 -602,-177 -604,-173 -606,-170 -607,-166 -609,-162 -610,-158 -612,-154 -613,-150 -615,-146 -616,-142 -618,-138 -620,-133 -621,-129 -623,-125 -625,-120 -626,-116 -628,-112 -630,-107 -631,-103 -633,-98 -635,-93 -637,-89 -638,-84 -640,-80 -642,-75 -644,-70 -646,-65 -648,-60 -650,-56 -651,-51 -653,-46 -655,-41 -657,-36 -659,-31 -661,-26 -663,-21 -665,-16 -667,-11 -669,-6 -671,-1 -673,4 -675,9 -678,15 -680,20 -682,25 -684,30 -686,35 -688,40 -690,46 -693,51 -695,56 -697,61 -699,67 -701,72 -703,77 -706,82 -708,87 -710,91 -712,96 -713,101 -715,105 -717,109 -719,114 -720,118 -722,122 -723,125 -725,129 -726,133 -727,136 -728,140 -729,143 -730,147 -731,150 -732,153 -732,156 -733,159 -733,162 -734,166 -734,169 -734,172 -734,175 -734,178 -734,181 -734,184 -733,187 -733,190 -732,193 -732,196 -731,199 -730,202 -730,205 -729,208 -728,211 -727,214 -726,216 -726,219 -725,222 -724,225 -724,228 -724,231 -723,234 -723,237 -723,240 -723,243 -723,246 -724,249 -724,252 -725,255 -725,258 -726,261 -727,264 -728,266 -729,269 -730,272 -732,275 -733,277 -734,280 -736,283 -738,285 -740,288 -741,290 -743,292 -745,295 -748,297 -750,299 -752,301 -754,303 -757,305 -759,307 -762,309 -765,311 -767,313 -770,315 -773,317 -776,319 -778,321 -781,323 -784,325 -787,327 -791,329 -794,332 -797,334 -800,336 -804,338 -807,341 -810,343 -814,346 -817,348 -821,351 -824,353 -828,356 -831,359 -835,362 -839,364 -839,364 -842,367 -846,370 -850,373 -853,376 -857,379 -861,382 -865,385 -868,388 -872,391 -875,394 -878,396 -881,399 -884,401 -886,404 -889,406 -891,408 -893,410 -895,412 -897,414 -899,415 -901,417 -903,419 -904,421 -906,423 -908,425 -909,427 -911,429 -912,431 -913,433 -915,435 -916,437 -917,439 -918,442 -919,445 -920,449 -920,453 -920,457 -920,461 -919,464 -917,468 -916,471 -913,474 -911,477 -908,480 -905,482 -902,485 -898,487 -895,488 -891,490 -886,491 -882,491 -878,491 -873,492 -871,492 -869,491 -866,491 -864,491 -861,491 -859,491 -857,490 -854,490 -851,490 -849,489 -846,489 -843,488 -841,488 -838,488 -835,487 -832,487 -829,486 -826,486 -823,485 -820,485 -817,484 -814,484 -810,483 -807,483 -804,482 -800,482 -797,481 -793,480 -789,480 -785,479 -782,478 -778,478 -774,477 -770,477 -766,476 -761,475 -757,474 -753,474 -749,473 -744,472 -740,472 -735,471 -731,470 -726,470 -722,469 -717,468 -713,467 -708,467 -703,466 -698,465 -693,465 -689,464 -684,463 -679,463 -674,462 -669,461 -664,461 -659,460 -654,460 -649,459 -644,458 -638,458 -633,457 -628,457 -623,456 -617,455 -612,455 -607,454 -601,454 -596,453 -591,453 -585,452 -580,452 -574,451 -569,451 -563,451 -558,450 -552,450 -546,450 -541,450 -535,450 -530,450 -524,450 -518,451 -513,451 -507,451 -501,452 -495,453 -490,453 -484,454 -478,455 -473,456 -467,457 -461,458 -455,459 -450,461 -444,462 -438,463 -433,464 -427,465 -422,466 -417,467 -412,468 -407,469 -402,470 -397,471 -393,472 -389,473 -384,474 -380,474 -377,475 -373,475 -369,476 -366,476 -362,477 -359,477 -356,477 -352,478 -349,478 -346,478 -343,478 -339,477 -336,477 -333,477 -330,476 -328,475 -325,475 -322,474 -320,473 -317,472 -314,470 -312,469 -310,467 -307,466 -305,464 -303,462 -301,460 -299,458 -297,456 -295,454 -293,452 -291,450 -289,447 -288,445 -286,442 -284,440 -283,437 -281,434 -280,432 -278,429 -277,426 -275,423 -274,420 -272,417 -271,414 -269,411 -268,407 -266,404 -265,401 -264,397 -262,394 -261,391 -259,387 -258,383 -257,380 -255,376 -254,372 -253,368 -252,364 -251,360 -250,356 -249,352 -248,348 -247,344 -246,339 -246,335 -245,330 -245,326 -245,321 -244,317 -244,312 -244,308 -245,303 -245,299 -245,294 -246,289 -246,285 -247,280 -248,275 -249,271 -250,266 -251,261 -253,257 -254,252 -255,247 -257,242 -258,238 -259,233 -261,228 -262,223 -263,218 -265,213 -266,208 -267,203 -269,198 -270,192 -271,187 -272,182 -273,177 -275,172 -276,167 -277,162 -277,157 -278,153 -279,149 -280,144 -280,141 -281,137 -281,133 -281,130 -282,127 -282,123 -282,120 -282,116 -282,113 -282,110 -282,107 -282,103 -281,100 -281,97 -281,94 -280,90 -279,87 -278,84 -278,81 -277,78 -276,75 -274,72 -273,70 -272,67 -270,64 -269,61 -267,58 -266,55 -264,52 -262,49 -261,46 -259,44 -257,41 -256,38 -254,36 -253,34 -251,31 -250,29 -248,27 -247,25 -245,23 -244,21 -242,19 -240,17 -239,15 -237,14 -234,11 -230,8 -228,6 -226,6 -224,5 -222,4 -220,3 -218,3 -216,3 -214,2 -211,2 -207,2 -204,2 -200,3 -196,4 -192,5 -189,7 -185,8 -181,10 -178,11 -176,12 -174,13 -172,13 -169,14 -167,15 -165,15 -162,16 -160,17 -157,17 -155,18 -152,18 -150,19 -147,19 -144,19 -142,20 -139,20 -136,20 -133,21 -130,21 -127,21 -124,22 -121,22 -118,22 -114,22 -111,22 -108,23 -104,23 -101,23 -98,23 -94,23 -90,23 -87,23 -83,23 -79,24 -76,24 -72,24 -68,24 -64,24 -60,24 -56,24 -51,23 -47,23 -43,23 -39,23 -34,23 -30,23 -25,23 -21,23 -16,23 -11,23 -7,22 -2,22 3,22 7,22 12,22 17,22 22,22 27,22 32,21 37,21 42,21 47,21 52,21 57,21 63,20 68,20 73,20 78,20 83,19 88,19 88,19 94,19 99,19 105,18 110,18 115,18 121,17 126,17 132,17 137,16 143,16 148,16 154,15 159,15 164,15 169,14 174,14 179,14 183,14 187,14 191,13 195,13 199,13 202,13 206,13 209,13 213,13 216,13 220,13 223,13 226,13 229,13 232,13 234,13 237,13 239,13 242,13 244,13 248,13 252,13 256,13 259,14 262,14 265,15 268,16 270,17 273,18 275,20 277,22 279,24 280,26 282,28 283,30 285,32 286,34 287,36 289,38 291,40 293,41 295,42 297,43 299,44 302,44 304,45 307,45 309,45 312,44 315,44 318,43 321,43 324,42 328,41 331,39 335,38 339,36 342,35 344,34 347,33 349,32 351,31 354,30 356,29 358,28 361,27 364,26 366,25 369,24 372,23 375,22 378,20 380,19 383,18 387,17 390,15 393,14 396,12 400,11 403,9 407,8 410,6 414,5 418,3 422,1 425,-0 429,-2 433,-4 437,-5 441,-7 445,-9 449,-11 453,-13 457,-15 461,-17 465,-19 469,-22 474,-24 478,-26 482,-29 486,-31 490,-34 495,-36 499,-39 503,-42 507,-45 512,-47 516,-50 520,-53 524,-56 529,-59 533,-63 537,-66 541,-69 546,-72 550,-75 554,-79 559,-82 563,-85 567,-89 571,-92 576,-96 580,-99 584,-103 588,-106 592,-110 596,-114 601,-117 605,-121 609,-125 613,-129 618,-133 622,-137 626,-141 630,-145 634,-149 638,-153 642,-157 647,-161 651,-165 655,-170 659,-174 663,-178 667,-183 671,-186 674,-190 678,-195 683,-199 687,-203 691,-208 695,-212 699,-216 704,-220 708,-224 713,-229 717,-233 722,-236 727,-240 731,-244 736,-248 741,-251 746,-255 751,-258 756,-262 761,-265 767,-268 772,-271 777,-274 782,-276 788,-279 794,-282 799,-284 805,-287 810,-289 815,-292 820,-294 825,-296 830,-298 835,-300 839,-302 843,-303 847,-305 852,-307 855,-309 859,-310 862,-312 866,-313 869,-315 873,-316 876,-317 879,-319 881,-320 884,-321 886,-322 889,-323 891,-324 894,-326 897,-328 901,-330 903,-332 906,-334 909,-336 911,-339 913,-342 915,-345 916,-348 917,-351 918,-354 919,-357 919,-361 919,-364 918,-368 918,-371 917,-375 916,-379 915,-383 913,-386 912,-390 911,-393 909,-396 909,-399 908,-401 907,-403 906,-405 904,-409 903,-411 902,-413 901,-416 900,-418 899,-420 898,-422 898,-424 896,-428 894,-431 892,-435 890,-438 888,-441 886,-444 883,-446 880,-449 878,-451 875,-453 872,-455 868,-456 865,-457 861,-459 858,-459 856,-460 854,-460 852,-460 850,-461 848,-461 846,-461 842,-461 840,-461 837,-461 835,-461 833,-460 830,-460 828,-460 825,-459 823,-458 820,-458 818,-457 815,-456 812,-455 810,-455 807,-454 805,-453 802,-451 799,-450 797,-449 794,-448 791,-447 788,-446 785,-444 782,-443 779,-442 776,-441 773,-439 770,-438 767,-437 763,-435 760,-434 756,-433 753,-431 749,-430 746,-428 742,-427 738,-425 734,-424 730,-422 726,-420 722,-419 718,-417 714,-415 710,-414 706,-412 702,-410 697,-409 693,-407 689,-405 684,-403 680,-402 675,-400 671,-398 666,-396 662,-395 657,-393 652,-391 648,-389 643,-387 638,-386 633,-384 628,-382 623,-380 618,-379 613,-377 608,-375 603,-373 598,-372 593,-370 588,-368 583,-367 578,-365 572,-364 567,-362 562,-361 556,-360 551,-358 545,-357 540,-356 534,-355 529,-354 524,-354 518,-353 513,-353 507,-352 501,-352 495,-352 490,-351 484,-351 479,-351 473,-351 469,-351
"></polygon>
    <circle id="minimapCarCircle" cx="471" cy="-350" r="17" stroke="black" stroke-width="13" fill="white"></circle>
</g>
</svg>
