<?xml version="1.0" encoding="utf-8"?>
<!-- Generator: Adobe Illustrator 25.2.3, SVG Export Plug-In . SVG Version: 6.00 Build 0)  -->
<svg version="1.1" id="Layer_1" xmlns="http://www.w3.org/2000/svg" xmlns:xlink="http://www.w3.org/1999/xlink" x="0px" y="0px"
	 viewBox="0 0 629.8 1031.3" style="enable-background:new 0 0 629.8 1031.3;" xml:space="preserve">
<style type="text/css">
	.st0{fill:none;stroke:#374151;stroke-width:6.7565;stroke-miterlimit:1.8783;}
</style>
<g transform="translate (0 4) scale(0.96 0.96)">

<path vector-effect="non-scaling-stroke" class="st0" d="M32.7,797.6c12.9-131.4,26.7-263,37.1-394.4c1.7-11.2,0.5-23,4.2-33.8
	c7.8-13.4,28.4,1.2,20.2-31c-9.6-27.7-14.1-57.5-10.8-86.9c1.1-28,4.9-56.9,17.8-82.2c21.1-44.7,66.3-73.6,113.6-84.1
	c44.9-7.5,91.1-8.3,136.2-10.8c14.2-0.9,28.4-1.6,42.3-1.9c11.1-1.7,26.8,1.1,31.9-11.3c6.9-14.7,23.3-17.8,37.6-20.7
	c14.6-4,28.6-9.3,42.7-13.6c22.9-7.5,45.5-19,69.5-20.2c20.7,0.9,37.6,18,39.9,38c2.5,22.7,4,45.6,6.1,68.1
	c4.7,31.9,2.7,52.3-29.1,66.2c-49.5,26.5-100.3,51.8-146,84.1c-51.9,41.8-101.7,86.5-151.7,129.6c-16.5,14.6-33,28.5-48.8,42.7
	c-9.2,8.2-19.7,15.7-23,27.7c-3.4,12.1,0.3,25-3.3,36.6c-5.4,20.8-26.1,32.5-31.9,52.6c-9,36.5-7.3,74.3-11.7,110.8
	c-5.6,66.9-12.7,133.5-19.7,199.6c-3.5,32.4-6.2,64.3-9.9,95.8c-1.2,15.4-1.5,30.7-8,44.1c-10.3,18.2-33,25.6-52.1,19.7
	c-51.3-16.4-55.4-79.3-55.8-124.5C29.6,864.2,29.2,831,32.7,797.6z"/>
</g>
</svg>
