<?xml version="1.0" encoding="utf-8"?>
<!-- Generator: Adobe Illustrator 25.2.3, SVG Export Plug-In . SVG Version: 6.00 Build 0)  -->
<svg version="1.1" id="Layer_1" xmlns="http://www.w3.org/2000/svg" xmlns:xlink="http://www.w3.org/1999/xlink" x="0px" y="0px"
	 viewBox="0 0 568.2 839.1" style="enable-background:new 0 0 568.2 839.1;" xml:space="preserve">
<style type="text/css">
	.st0{fill:none;stroke:#374151;stroke-width:6.6462;stroke-miterlimit:3.3231;}
</style>
<g transform="rotate(90 110 110) translate(10 -200) scale(0.49 0.49)" >
<path vector-effect="non-scaling-stroke" class="st0" d="M1286,282.5c74.8,85.4,150.1,171.4,225.1,256.7
	c41.8,51.8,91.4,99.1,129.6,153.7c24,40.6,32.4,115.2-21.6,134.6c-43.1,15.3-74.3-23.1-90.6-58.2
	c-73.7-165.7-154.5-22.3-191.1-178.6c-28.6-73.1-73-43.8-127.9-64.8c-28.3-11.1-47.7-43.9-40.7-73.9c4.6-22.3,17-44,18.3-67.3
	c1.4-68.2-68-98.2-127.1-98c-58.4-1.8-114.9,28.2-150.4,73.9c-25.1,31.5-46.7,70.5-79.8,93.9c-18.2,9.4-39.3,15.3-59,16.6
	c-16.6,2-34.7,5.9-50.7,3.3c-34.4-2.4-42.7-39.7-46.5-67.3c-6.1-34.1-14.1-68.5-22.4-101.4c-6.7-28.1-15.7-57.9-12.5-86.4
	c1.6-22.7,11.3-44.6,19.1-64.8c10.2-17.2,20.9-48.6-8.3-50.7c-69.9,24-43,195.9-246.7,170.3c-243-34.2-197.3-217-285-260
	C38.3-14.3-33.3,61.4,35.7,128C145.5,224.1,284.3,277,421.2,319c41.1,15,85.4,26.5,125.5,40.7c53.7,15.1,105.8,40.4,160.3,44.8
	c109.8,3.3,173.9-98.1,244.2-164.5c55.4-60.5,57.7,5.2,103.9-16.6C1136.5,146.1,1227.7,214.5,1286,282.5z"/>
</g>
</svg>
