<?xml version="1.0" encoding="utf-8"?>
<!-- Generator: Adobe Illustrator 25.2.3, SVG Export Plug-In . SVG Version: 6.00 Build 0)  -->
<svg version="1.1" id="Layer_1" xmlns="http://www.w3.org/2000/svg" xmlns:xlink="http://www.w3.org/1999/xlink" x="0px" y="0px"
	 viewBox="0 0 600 700" style="enable-background:new 0 0 600 700;" xml:space="preserve">
<style type="text/css">
	.st0{fill:none;stroke:#374151;stroke-width:8;}
</style>
<g transform=" rotate (-20 0 0) translate (-200 100) scale(0.7 0.7)">

<path vector-effect="non-scaling-stroke" class="st0" d="M140,321c23.8-63,49.7-125.8,73-189c15.6-36.4,23.9-77.8,49-109
	c24.9-25.9,63.7-13.3,72,21c4.3,21.3-6.5,42.6-14,62c-14.1,25.7-25,54.2-31,83c-6,25.5-4.5,52.2-7,78c-4.9,52.4-36.7,66.8-80,85
	c-15.3,4.5-30.3,17.4-32,34c0.9,19.2,19.1,34.1,38,33c43.7-3.1,82.3-27.7,125-36c37.3-6.9,75.7-4.5,113,2c30,4.3,60.3,14.9,91,10
	c28.1-0.4,55.4-10.9,80-24c21.1-11.9,41.3-27.4,64-36c39.7-18.6,84.7-22.4,128-22c29.1-0.3,59-0.4,87,8c59.7,19.3,90,74.4,73,135
	c-9.1,29.1-31,51.5-48,76c-9,16.9-19.7,33.8-26,52c-9.1,22.8-16.9,47.9-35,65c-27.6,27.5-64.8,30.1-101,25
	c-40.1-8.3-106.5-35.4-105-84c8.4-48.7,61.2-52.9,101-53c22.9-2.8,46.1-9.4,64-24c26.7-22.8,26.8-58.3,0-80
	c-26-22.3-63.4-17.4-95-19c-38.5,1.8-77.4,2.8-115,10c-88.1,13.9-173.1,45.6-250,88c-20.6,12.9-49.9,23.7-68,2.9
	c-18.8-21.8-48.8-28.1-65-0.9c-10.5,22.3-2.7,47.7,1,70c13.1,55.3,31.6,109.4,39,165c16.6,77.1-56.6,101.2-119.1,93
	C48.5,838.8-13,746.6,16,655C53.5,541.5,97.6,432.1,140,321z"/>
</g>
</svg>
