<?xml version="1.0" encoding="utf-8"?>
<!-- Generator: Adobe Illustrator 25.2.3, SVG Export Plug-In . SVG Version: 6.00 Build 0)  -->
<svg version="1.1" id="Layer_1" xmlns="http://www.w3.org/2000/svg" xmlns:xlink="http://www.w3.org/1999/xlink" x="0px" y="0px"
	 viewBox="0 0 753.3 958.5" style="enable-background:new 0 0 753.3 958.5;" xml:space="preserve">
<style type="text/css">
	.st0{fill:none;stroke:#374151;stroke-width:7.8545;stroke-miterlimit:3.9273;}
</style>
<g transform="rotate(-30 0 0) translate(-170 250) scale(0.8 0.8)">

<path vector-effect="non-scaling-stroke" class="st0" d="M11.9,659c-3.6-48.1-4.4-96.9,4.9-144.3c5.2-20.3,4.4-46.1,20.6-60.9
	c16.9-17.3,43.8-15.4,65.8-19.6c26.5-1.7,52.5-8.7,78.5-13.7c19.7-3.7,39.5-8.5,58.9-12.8c17.2-3.2,35.6-4.8,52-10.8
	c36.2-9.8,69.5-29.7,107-35.3c29.6-6.5,60.8-7.3,89.3-18.7c37.8-15.8,60.7-51.2,43.2-91.3c-5.8-10.7-12.7-21.1-21.6-29.5
	c-10.6-8.4-17.8-20.4-21.6-33.4c-3.2-26.7,15.9-48.9,32.4-67.7c14.7-20.5,30-40.5,45.2-60.9c15.1-20.9,52.9-80.3,73.6-35.3
	c3.7,20.2,8.6,40.1,18.7,57.9c3.5,7,7.1,15.5,13.8,19.6c8,4.8,18.1-1.9,15.7-10.8c-6.3-15-26.2-21-28.5-38.3
	c-5.3-19.5,15.2-30.5,29.5-37.3c16.2-6.5,30.5-11.1,45.2,2c16.9,23.2,7,54.6,3.9,80.5c-5.3,27.8-11,55.9-19.6,82.5
	c-18.3,50-35.9,106.5-80.5,138.4c-53.8,28.4-108.1,57.8-165.9,75.6c-22.7,6.6-45.9,12.1-68.7,15.7c-15,4.1-31.6,3.7-45.2,10.8
	c-15.5,7.6-16.3,30.1-40.3,24.5c-47-10.7-94.7,0.6-141.4,4.9c-30.9,4.4-65.6,3.6-91.3,22.6c-24.4,19.3-35.9,51.9-37.3,81.5
	c-2.9,18.8,1.8,37.9,6.9,55C66.8,633,82,654.5,86.5,679.6c6.6,21.4,14.8,44.2,10.8,65.8c-3.1,16-15.9,28.3-15.7,44.2
	c-1,28.1,13.3,53.7,29.5,74.6c13.1,16.8,31.3,28.1,48.1,39.3c11.8,6,19.8,21.6,11.7,32.4c-13.7,9.9-31.5,12.1-47.1,13.7
	c-17.3-2.3-26.3-11.5-32.4-26.5c-6.7-14.6-12-29.9-19.6-43.2C37.2,811,16.8,735.9,11.9,659z"/>
</g>
</svg>
