<?xml version="1.0" encoding="utf-8"?>
<!-- Generator: Adobe Illustrator 25.2.3, SVG Export Plug-In . SVG Version: 6.00 Build 0)  -->
<svg version="1.1" id="Layer_1" xmlns="http://www.w3.org/2000/svg" xmlns:xlink="http://www.w3.org/1999/xlink" x="0px" y="0px"
	 viewBox="0 0 760 920" style="enable-background:new 0 0 760 920;" xml:space="preserve">
<style type="text/css">
	.st0{fill:none;stroke:#EEEEEE;stroke-width:8;}
</style>
<g transform="rotate(-45 0 0) translate(-510 405) scale(0.55 0.55)">

<path vector-effect="non-scaling-stroke" class="st0" d="M1442,492.5c-11.9-85.3-23.3-170.8-35-256c-1.9-21.9-6.2-44.3-9-66
	c-2.3-26-5.1-52.7-12-78c-5.5-18.8-21.3-32.8-40-38c-10.6-1.9-21-3.9-31-8c-6.8-4.7-15.3-7.6-21-14c-10.3-8.2-20.2-19.9-34-22
	c-43.2-8.1-45.7,50.4-40,80c6.3,45.7,28.9,87.8,44,131c13.2,50.1,51.2,141-8,173c-24.3,13.6-53.2,11.9-80,8c-27.5-2.5-55.4-5.8-83-7
	c-88.8-7.6-179.7-4.8-267-25c-44.1-10.2-82.7-35.2-121-58c-34.9-22.7-71.5-44.6-107-66c-14-10-29.6-17.5-44-26
	c-14.6-9.4-30.4-18.7-48-18c-49.9,5.3-63.5,70.2-86,106c-11.4,23.5-25.3,69-59,54c-17.5-8.2-25.9-27.1-36-42
	c-8.9-14.9-21.1-27.2-32-40c-36.4-33.9-73.8-40-107,2c-18.2,28.5-31.5,60-48,89c-27.3,50.1-53.3,101-83,149c-9.3,15.3-18,31.2-27,46
	c-14.1,19.6-25.7,44.7-15,68c17,51.7,88,37.9,96,84c1.1,26,1.4,50.7,18,72c12.7,17.3,32,26.6,49,38c23.6,15.8,37.4,41.2,50,65
	c14.3,27.7,38,19.9,46-7c7.3-36.4,6.9-73.9,14-110c8.8-71.5,23.3-142.4,43-211c11.1-37.8,23.7-75.7,37-112c5.2-13,8.1-27.5,17-38
	c21.6-20.1,52.3-5.9,67,14.1c40.6,40.8,78.3,87.7,130,113c17.5,8,36,11.4,54,14c23.4,2.3,57.6,3.7,62,32c3.1,17.1-1.5,34.1,9,49
	c26.6,39.5,78.1,29,118,34c19.7,0,39.2,3.4,58,3c22.3,3.8,43.7-8.3,47-31.1c-3.4-45.5,29.5-70.4,72-64c20.5,0.3,41.1,0.6,60,6
	c28,10.8,25.4,44.1,42,64c17,23,47.7,28.7,74,29c39.3,2.1,78.6,3.1,117,6c29.6,0.5,60.2,8.4,88-2c43.1-17,65.4-61.7,70-105
	C1451.7,548.3,1447.3,520.6,1442,492.5z"/>
</g>
</svg>
