<?xml version="1.0" encoding="utf-8"?>
<!-- Generator: Adobe Illustrator 25.2.3, SVG Export Plug-In . SVG Version: 6.00 Build 0)  -->
<svg version="1.1" id="Layer_1" xmlns="http://www.w3.org/2000/svg" xmlns:xlink="http://www.w3.org/1999/xlink" x="0px" y="0px"
	 viewBox="0 0 854.1 1011.4" style="enable-background:new 0 0 854.1 1011.4;" xml:space="preserve">
<style type="text/css">
	.st0{fill:none;stroke:#EEEEEE;stroke-width:6.912;stroke-miterlimit:3.456;}
</style>
<path vector-effect="non-scaling-stroke" class="st0" d="M728.2,363.6C618.3,534.5,508.6,705.6,399,876.8
	c-11.4,19.3-24.1,38.9-37.2,57c-12.3,20.9-37.6,32.9-61.3,25.9c-33.2-15.7-57.1-25.7-91.6-4.3c-13.8,8.2-24.9,20.3-38,29.4
	c-24.1,16.7-55.3,21.9-83.8,14.7c-55.7-14.8-86.3-76.6-76.9-131.3c7.1-53.8,39.6-98.9,68.3-143.4c13-20.5,25.1-42.1,38.9-62.2
	c11.6-21.6,26.6-45.2,49.3-56.2c37.3-15.9,73.3,16.1,77.8,52.7c5.8,26.5-6.8,53.6-20.7,75.2c-16.3,24-34.2,47.4-49.3,71.7
	c-10,14.8-22.1,28.8-26.8,45.8c-10.4,26.2,12.3,50.1,38.9,45.8c19.1-3.9,37.4-12.3,54.4-20.7c17.7-7.6,35.5-15.6,51.8-25.1
	c33.9-19.4,65.2-43.9,87.3-76c14.3-18.9,30.4-38.2,35.4-61.3c7.2-41.7-24.6-52.5-48.4-76c-24.1-23.3-33.6-57.8-46.7-87.3
	c-20.6-43.3-42.2-97.2-12.1-140.8c28.9-42.6,82.5-52.8,124.4-76.9c89.8-44.9,184.4-81.7,271.3-129.6c24.6-12.6,18.5-43.6-7.9-47.5
	c-25.7-7-52.8-16.7-78.6-9.5c-21.8,5.8-38.2,26.7-61.3,26.8c-41.2,5.6-62.4-42.3-43.1-74.3c11-20.6,31.8-33,48.4-47.5
	c19.8-15.6,38.2-33.7,61.3-42.3c47.6-13.5,69.6,70.9,109.7,53.6c23.9-23.3,45.7-10.6,68.3,6.1c28.4,18.4,44.9,51,44.9,83.8
	c0.1,39.8-26.3,71.8-46.7,102.8C774.9,291.9,753.3,328.8,728.2,363.6z"/>
</svg>
