<?xml version="1.0" encoding="utf-8"?>
<!-- Generator: Adobe Illustrator 25.2.3, SVG Export Plug-In . SVG Version: 6.00 Build 0)  -->
<svg version="1.1" id="Layer_1" xmlns="http://www.w3.org/2000/svg" xmlns:xlink="http://www.w3.org/1999/xlink" x="0px" y="0px"
	 viewBox="0 0 550 900" style="enable-background:new 0 0 550 900;" xml:space="preserve">
<style type="text/css">
	.st0{fill:none;stroke:#374151;stroke-width:6.6462;stroke-miterlimit:3.3231;}
</style>
<g transform="rotate(-45 0 0) translate (-600 350) scale(0.6 0.6)">

<path vector-effect="non-scaling-stroke" class="st0" d="M90.4,587.1C210.2,676,331.5,763.6,449.3,855.4
	c18.7,12.5,34.9,30,56.5,37.4c43.7,5.2,38.8-38,22.4-64.8c-30.8-52.8-49.4-104-10-158.7c30.1-42.6,86.6-51.5,123-87.2
	c26.9-20.7,36.3-55.1,58.2-79.8c14.3-18.4,37.8-27.7,53.2-44.9c27.5-23.6,26.7-62.7,44-92.2c20.6-37.9,71.2-53.5,108.8-31.6
	c58.6,31.6,97.4,30.8,137.1-26.6c15.6-22.1,41-34.4,66.5-22.4c14.8,6.3,25.1,19.1,39.9,24.9c33.1,11.1,67.3-1.7,98.9-10.8
	c61.8-17.1,90.4-49.7,128.8-97.2c34.3-44.2,69.7-87.5,104.7-130.4c9.1-11.1,18.7-22.1,22.4-35.7c2.1-16.2-9.1-28.3-24.9-29.1
	c-29.3,2.2-55.4,18.2-83.1,26.6c-60.8,21.6-122.6,40.1-183.6,59c-144,43-291.8,68.6-439.5,90.6c-51.6,7.5-103.3,14.2-154.5,20.8
	c-11.2,0.3-22.7,2.2-33.2,4.2c-14.7,0.5-32.8,5-38.2,19.9c-8.6,30,25,49.6,41.5,69c95.6,74.5,15.8,130.7-34.1,77.2
	c-20.4-21.8-25.6-55.6-49.8-73.9c-10.8-10.6-28.4-13.6-41.5-8.2c-22,15.7-9.5,46,5,61.5c15.3,18.7,32.8,35.5,44.9,55.7
	c23,38.2,16.9,86.2-10,119.6c-44.4,51.4-123.4,51.6-169.5,4.1c-41.4-36.3-56.4-108.8-109.7-127.1c-33.5-11.1-67.4,7.9-96.4,21.6
	c-22.4,10.5-44.4,20-65.6,30.7c-20.6,11.6-53.9,17.3-54.8,44.9c-1.8,23.5,19.7,38.5,35.8,50.7C58.4,564.6,73.8,576.4,90.4,587.1z"/>
</g>
</svg>
