<?xml version="1.0" encoding="utf-8"?>
<!-- Generator: Adobe Illustrator 25.2.3, SVG Export Plug-In . SVG Version: 6.00 Build 0)  -->
<svg version="1.1" id="Layer_1" xmlns="http://www.w3.org/2000/svg" xmlns:xlink="http://www.w3.org/1999/xlink" x="0px" y="0px"
	 viewBox="0 0 890 980" style="enable-background:new 0 0 890 980;" xml:space="preserve">
<style type="text/css">
	.st0{fill:none;stroke:#EEEEEE;stroke-width:5.0824;stroke-miterlimit:2.5412;}
</style>
<path vector-effect="non-scaling-stroke" class="st0" d="M184.7,705.8c68.1-54.7,140.2-104.9,208.4-159.5
	c23.9-14.4,24.5-37.1-5.1-43.2c-29.5-9-27.2-50.1-5.1-66.1c18.4-15.9,61.2-23.6,71.8,4.4c3.9,6.9-0.2,15.9,1.9,23.5
	c2.1,16.5,12.4,31.9,27.3,39.4c18.2,12,33.9,27.9,47.6,45.1c13.3,14.4,26.3,29.3,38.8,44.5c60.7,68.1,117.4,140.4,174.1,211.6
	c19.4,24.1,37.9,48.8,57.2,72.4c10.3,15.1,24.7,28,30.5,45.1c3.6,11.4-10.9,20.3-7.6,31.1c5.9,27.4,52.5,22.8,57.2-3.2
	c7.4-22.9-14.7-34.8-31.8-42.6c-10.2-5.8-19.1-13.8-27.3-21.6c-56.6-69.8-111.7-141.4-163.3-214.7c-26.8-40.1-55-79.4-82.6-118.2
	c-28.3-38.6-58.2-77.2-75-122c-22.5-77.1-31.9-158.6-28.6-238.2c2.9-43.5,8.8-86.7,17.2-129c1.7-17.5,10.3-34.2,7.6-51.5
	c-7.1-13.5-23.3-1.5-29.2,7c-22.3,28.2-19.6,91.3-23.5,127.1c-1.9,35.6-2.1,72,3.2,106.8c1.5,27.3,22.6,68.9-15.3,78.1
	c-11.9,2.1-23.7,2.5-34.9,3.8c-7.8,1.6-15,4.5-22.2,5.7c-22.1,6.1-45.8,4.5-66.1,14.6c-13.2,7.8-24.5,18.3-34.9,28.6
	c-12.3,11.6-24.2,23.5-31.8,38.1c-12.9,24.4-2.3,54.5-17.2,77.5c-8.4,16.2-25.6,27.5-42.6,31.1c-23,2.9-43.6,4.6-59.1,23.5
	c-18.1,24-10.2,44-12.1,69.9c-6.8,40.2-39.7,48.4-74.4,50.8c-18.7-0.9-40.4,13.2-26.6,32.4c7.8,12.7,20.9,20.3,31.1,29.9
	c17.4,16.4,33.7,26.4,57.8,24.1c17.4-2.1,30.3-13,42.6-23.5C157,727.4,171.3,717.6,184.7,705.8z"/>
</svg>
