<?xml version="1.0" encoding="utf-8"?>
<svg xmlns="http://www.w3.org/2000/svg" xmlns:xlink="http://www.w3.org/1999/xlink" preserveAspectRatio="xMidYMid meet" height="100%" viewBox="-370 -1450 1400 2900" class="mx-auto max-w-xs">
<g transform="rotate(30 0 0) translate (300 -150) scale(1.06 1.06)">

    <polygon vector-effect="non-scaling-stroke" fill="none" style="stroke: #374151; stroke-width:8" points="169,804 167,798 165,793 163,787 161,781 159,775 157,769 155,763 153,758 152,752 150,746 148,740 146,734 144,728 142,723 140,717 138,711 136,705 134,699 132,693 130,687 128,682 126,676 124,670 122,664 120,658 118,652 116,646 114,640 112,634 110,628 108,623 106,617 104,611 102,605 100,599 98,593 96,587 94,581 92,575 90,569 88,563 86,557 84,551 82,545 80,539 78,534 76,528 74,522 72,516 70,510 68,504 66,498 64,492 62,486 60,480 58,474 56,468 54,462 52,456 50,450 48,444 46,438 44,432 42,427 41,421 39,416 37,412 36,407 34,403 33,398 32,394 30,390 29,387 28,383 27,380 26,376 25,373 24,370 23,367 22,365 21,362 20,360 19,358 18,355 17,352 15,347 13,344 11,341 8,338 6,335 3,332 -1,329 -2,328 -4,327 -6,327 -8,326 -9,325 -11,325 -13,324 -15,324 -17,324 -21,324 -24,325 -28,326 -31,326 -35,326 -38,326 -41,326 -44,326 -47,325 -50,324 -53,323 -56,322 -58,320 -60,318 -62,316 -64,314 -65,312 -67,309 -68,306 -69,303 -70,300 -71,297 -71,294 -71,291 -71,287 -71,283 -71,280 -70,276 -69,271 -68,267 -67,265 -66,262 -65,259 -64,257 -63,255 -62,252 -61,250 -60,247 -59,244 -58,242 -57,239 -56,236 -55,233 -54,230 -53,227 -52,224 -51,221 -49,218 -48,215 -47,211 -46,208 -45,204 -45,200 -44,197 -43,193 -42,189 -42,185 -41,181 -41,177 -41,172 -40,168 -40,164 -40,159 -40,155 -40,151 -40,146 -40,141 -41,137 -41,132 -42,128 -42,123 -43,118 -44,113 -44,108 -45,104 -46,99 -47,94 -48,89 -49,84 -49,79 -50,74 -51,69 -52,64 -53,58 -54,53 -55,48 -56,43 -57,37 -57,32 -58,27 -59,21 -60,16 -61,11 -62,5 -63,-0 -64,-6 -64,-11 -65,-17 -66,-22 -67,-28 -68,-33 -69,-39 -69,-44 -70,-49 -71,-53 -71,-58 -72,-62 -73,-66 -73,-70 -74,-74 -74,-77 -75,-80 -75,-83 -75,-86 -76,-89 -76,-91 -76,-94 -77,-96 -78,-100 -79,-104 -81,-108 -83,-112 -84,-113 -85,-115 -87,-117 -88,-118 -89,-120 -91,-121 -94,-124 -97,-126 -100,-128 -103,-130 -107,-132 -110,-134 -112,-135 -114,-136 -116,-137 -118,-138 -120,-139 -122,-140 -125,-142 -127,-143 -129,-145 -132,-146 -134,-148 -136,-150 -139,-152 -141,-153 -143,-156 -145,-157 -148,-160 -150,-162 -152,-164 -154,-167 -156,-170 -158,-173 -160,-175 -162,-178 -163,-182 -165,-185 -167,-188 -168,-191 -169,-195 -170,-198 -171,-202 -172,-205 -173,-209 -173,-212 -174,-216 -174,-219 -174,-223 -174,-227 -174,-230 -174,-234 -174,-238 -174,-242 -173,-245 -173,-249 -172,-253 -171,-257 -170,-260 -169,-264 -167,-268 -166,-271 -164,-275 -162,-279 -160,-282 -158,-286 -156,-289 -154,-293 -152,-296 -150,-300 -148,-303 -146,-307 -144,-311 -143,-315 -141,-319 -139,-323 -138,-327 -137,-331 -136,-335 -135,-339 -134,-344 -133,-348 -132,-352 -131,-357 -131,-361 -130,-366 -130,-370 -130,-375 -130,-379 -130,-384 -131,-388 -132,-393 -133,-397 -134,-401 -135,-406 -136,-410 -138,-414 -140,-418 -142,-422 -144,-426 -146,-430 -149,-433 -151,-437 -154,-440 -156,-443 -159,-447 -162,-450 -164,-453 -167,-456 -170,-458 -173,-461 -176,-464 -179,-466 -183,-469 -185,-471 -188,-474 -191,-476 -194,-479 -196,-482 -198,-485 -200,-488 -203,-491 -205,-494 -206,-498 -208,-501 -210,-504 -211,-507 -213,-510 -214,-514 -215,-517 -216,-520 -217,-524 -218,-527 -218,-531 -219,-534 -220,-538 -220,-541 -220,-545 -220,-548 -220,-552 -221,-556 -221,-559 -221,-563 -220,-567 -220,-571 -220,-575 -219,-579 -219,-583 -218,-587 -218,-591 -217,-595 -217,-598 -216,-602 -215,-606 -214,-610 -212,-614 -211,-617 -209,-621 -208,-624 -206,-627 -204,-630 -202,-633 -199,-636 -197,-639 -194,-641 -192,-644 -189,-646 -187,-649 -184,-651 -181,-653 -179,-655 -176,-658 -173,-660 -171,-662 -168,-664 -165,-665 -162,-667 -159,-669 -157,-670 -154,-672 -151,-674 -148,-675 -145,-677 -143,-679 -140,-681 -138,-682 -135,-684 -133,-686 -130,-688 -128,-690 -126,-692 -124,-694 -122,-697 -120,-699 -118,-701 -116,-704 -114,-706 -112,-708 -111,-711 -109,-713 -108,-716 -107,-719 -105,-722 -104,-725 -103,-728 -101,-731 -100,-734 -99,-737 -98,-740 -97,-743 -96,-747 -95,-750 -95,-754 -94,-757 -93,-761 -92,-765 -91,-768 -91,-772 -90,-776 -89,-780 -88,-784 -87,-788 -87,-792 -86,-796 -85,-800 -84,-804 -83,-808 -82,-813 -81,-817 -80,-822 -79,-826 -78,-831 -77,-835 -76,-840 -75,-844 -74,-849 -73,-854 -72,-859 -71,-863 -70,-868 -69,-873 -68,-878 -67,-883 -67,-888 -66,-893 -65,-898 -64,-903 -64,-908 -63,-913 -62,-919 -62,-924 -61,-929 -60,-935 -60,-940 -59,-945 -59,-945 -59,-951 -59,-956 -58,-962 -58,-967 -58,-973 -58,-978 -58,-984 -58,-989 -58,-995 -58,-1001 -58,-1006 -58,-1012 -58,-1018 -58,-1023 -58,-1029 -58,-1035 -58,-1041 -58,-1046 -59,-1052 -59,-1058 -59,-1064 -59,-1070 -59,-1076 -59,-1081 -60,-1087 -60,-1093 -60,-1099 -60,-1105 -60,-1111 -60,-1117 -61,-1123 -61,-1129 -61,-1134 -61,-1140 -61,-1146 -62,-1152 -62,-1158 -62,-1164 -62,-1170 -62,-1176 -63,-1182 -63,-1188 -63,-1194 -63,-1200 -64,-1206 -64,-1212 -64,-1218 -65,-1224 -65,-1230 -65,-1236 -66,-1243 -66,-1249 -66,-1255 -67,-1261 -67,-1267 -67,-1272 -67,-1277 -68,-1282 -68,-1287 -68,-1291 -69,-1296 -69,-1300 -69,-1303 -70,-1307 -71,-1311 -71,-1314 -72,-1317 -72,-1320 -73,-1322 -74,-1325 -75,-1328 -76,-1330 -77,-1332 -78,-1335 -80,-1337 -81,-1339 -83,-1341 -84,-1343 -86,-1345 -88,-1347 -90,-1349 -92,-1351 -93,-1352 -95,-1354 -97,-1356 -99,-1357 -101,-1359 -103,-1360 -106,-1361 -108,-1362 -110,-1363 -112,-1364 -114,-1365 -117,-1365 -119,-1366 -121,-1367 -123,-1367 -126,-1368 -128,-1368 -130,-1368 -133,-1368 -135,-1368 -137,-1368 -139,-1368 -141,-1368 -144,-1368 -146,-1367 -150,-1366 -154,-1365 -158,-1363 -162,-1362 -165,-1360 -169,-1357 -172,-1355 -175,-1352 -178,-1350 -180,-1347 -183,-1343 -185,-1340 -187,-1338 -188,-1336 -189,-1334 -191,-1332 -192,-1329 -193,-1327 -194,-1325 -195,-1322 -196,-1320 -197,-1317 -198,-1314 -199,-1312 -200,-1309 -200,-1306 -201,-1303 -201,-1300 -202,-1297 -202,-1294 -202,-1291 -202,-1287 -202,-1284 -202,-1281 -202,-1278 -202,-1274 -201,-1271 -201,-1268 -200,-1264 -199,-1261 -198,-1257 -197,-1254 -196,-1251 -195,-1247 -193,-1243 -192,-1240 -190,-1236 -189,-1233 -187,-1229 -185,-1226 -183,-1222 -180,-1219 -178,-1215 -176,-1211 -173,-1208 -171,-1204 -169,-1200 -166,-1197 -164,-1193 -161,-1189 -159,-1185 -156,-1181 -154,-1177 -151,-1173 -149,-1169 -146,-1164 -144,-1160 -142,-1156 -139,-1151 -137,-1147 -135,-1143 -133,-1138 -132,-1134 -130,-1129 -128,-1125 -127,-1120 -126,-1116 -125,-1111 -123,-1107 -123,-1102 -122,-1098 -121,-1094 -121,-1089 -120,-1085 -120,-1080 -119,-1076 -119,-1072 -119,-1067 -118,-1063 -118,-1059 -118,-1055 -118,-1050 -118,-1046 -119,-1042 -119,-1037 -119,-1033 -119,-1028 -120,-1023 -121,-1019 -121,-1014 -122,-1010 -123,-1005 -124,-1000 -125,-996 -126,-991 -127,-986 -129,-982 -130,-977 -132,-972 -134,-967 -135,-963 -137,-958 -139,-953 -141,-948 -143,-944 -145,-939 -147,-934 -149,-929 -151,-924 -153,-919 -155,-914 -157,-909 -159,-905 -161,-900 -163,-895 -165,-890 -167,-886 -168,-881 -170,-876 -171,-871 -172,-866 -173,-862 -173,-857 -174,-853 -175,-848 -175,-844 -176,-840 -176,-836 -176,-832 -177,-829 -177,-826 -177,-823 -178,-820 -178,-817 -179,-814 -179,-811 -180,-809 -181,-806 -182,-803 -183,-801 -184,-798 -185,-795 -186,-793 -187,-791 -188,-788 -190,-786 -191,-784 -193,-782 -194,-779 -196,-777 -197,-775 -199,-773 -201,-772 -203,-770 -205,-768 -207,-767 -209,-765 -212,-764 -214,-762 -216,-760 -219,-759 -222,-758 -224,-756 -227,-755 -230,-754 -233,-753 -235,-751 -238,-750 -241,-748 -244,-747 -247,-745 -250,-743 -252,-742 -255,-740 -258,-738 -260,-736 -263,-734 -265,-732 -268,-730 -270,-727 -272,-725 -274,-722 -276,-720 -278,-717 -279,-714 -281,-712 -282,-709 -284,-706 -285,-703 -287,-701 -288,-698 -289,-695 -290,-692 -291,-689 -292,-687 -293,-684 -294,-681 -295,-678 -295,-675 -296,-672 -296,-670 -297,-667 -297,-664 -297,-660 -298,-657 -298,-654 -298,-650 -299,-647 -299,-643 -299,-640 -299,-636 -299,-632 -299,-629 -298,-625 -298,-621 -298,-617 -298,-613 -298,-609 -297,-605 -297,-601 -296,-596 -296,-592 -295,-588 -294,-583 -294,-579 -293,-574 -292,-570 -291,-565 -290,-561 -288,-556 -287,-552 -286,-547 -284,-542 -283,-538 -281,-533 -279,-529 -277,-524 -275,-519 -273,-515 -271,-510 -269,-505 -267,-501 -265,-496 -262,-491 -260,-486 -258,-482 -256,-477 -253,-472 -251,-467 -249,-462 -247,-457 -245,-452 -243,-447 -241,-442 -239,-437 -237,-432 -235,-426 -233,-421 -231,-416 -230,-410 -228,-405 -226,-400 -224,-394 -223,-389 -221,-383 -220,-378 -219,-373 -217,-367 -216,-362 -215,-356 -214,-351 -213,-346 -213,-340 -212,-335 -212,-330 -211,-324 -211,-319 -211,-314 -211,-309 -211,-303 -211,-298 -211,-293 -211,-287 -211,-282 -211,-276 -211,-271 -211,-265 -211,-260 -211,-255 -210,-249 -210,-244 -210,-238 -209,-232 -208,-227 -208,-221 -207,-216 -207,-210 -206,-204 -205,-199 -204,-193 -203,-187 -202,-182 -200,-176 -199,-170 -197,-165 -196,-159 -194,-153 -193,-148 -191,-142 -190,-136 -188,-131 -186,-125 -184,-120 -181,-114 -179,-109 -177,-103 -174,-98 -171,-93 -169,-87 -166,-82 -163,-77 -160,-72 -156,-67 -153,-62 -150,-57 -147,-52 -144,-47 -142,-42 -139,-37 -136,-32 -134,-27 -131,-22 -129,-17 -126,-12 -124,-7 -124,-7 -122,-2 -120,3 -118,8 -115,14 -113,19 -111,24 -109,30 -108,35 -106,41 -104,46 -103,52 -101,57 -100,63 -99,69 -97,74 -96,79 -95,85 -94,91 -93,97 -92,103 -92,108 -91,114 -91,120 -90,126 -90,132 -90,138 -89,144 -89,150 -89,156 -89,162 -89,168 -89,174 -89,180 -89,186 -90,192 -90,198 -91,204 -91,210 -92,216 -93,222 -94,228 -96,234 -97,240 -98,246 -99,251 -100,256 -101,261 -102,265 -103,270 -104,274 -104,278 -105,282 -105,285 -106,289 -106,292 -107,295 -107,298 -107,300 -107,303 -107,306 -107,309 -107,312 -106,314 -106,317 -106,320 -105,323 -105,325 -104,328 -103,330 -102,333 -101,335 -100,338 -98,340 -97,342 -96,345 -95,347 -93,349 -92,351 -90,353 -88,356 -87,358 -85,360 -83,362 -81,365 -78,368 -76,370 -73,372 -71,374 -69,376 -66,378 -64,380 -62,382 -60,385 -58,387 -55,389 -53,392 -51,394 -49,397 -47,400 -44,402 -42,405 -40,408 -39,411 -37,414 -35,417 -33,420 -32,424 -30,427 -29,430 -27,434 -26,437 -25,441 -23,445 -22,448 -21,452 -20,456 -19,460 -18,464 -18,468 -17,472 -17,476 -16,480 -16,485 -16,489 -15,493 -15,497 -15,501 -15,505 -15,509 -16,513 -16,516 -17,520 -18,524 -19,528 -20,532 -21,536 -22,540 -23,544 -24,548 -26,552 -27,557 -29,561 -30,565 -32,569 -34,574 -35,578 -37,582 -40,586 -42,591 -44,595 -46,599 -48,604 -50,608 -53,612 -55,617 -58,621 -60,626 -63,630 -65,635 -68,639 -70,644 -73,648 -75,653 -78,658 -81,662 -83,667 -86,672 -88,677 -90,682 -92,687 -94,692 -96,697 -98,702 -100,707 -102,712 -104,718 -105,723 -107,728 -109,734 -110,739 -112,745 -113,750 -114,756 -115,762 -116,767 -117,773 -118,779 -119,784 -120,790 -120,796 -121,802 -121,808 -121,813 -122,819 -122,824 -122,830 -121,836 -121,842 -121,848 -120,854 -120,860 -119,866 -119,872 -118,878 -117,884 -116,889 -114,895 -113,901 -111,907 -110,913 -108,919 -107,924 -105,930 -103,936 -102,942 -100,948 -99,954 -97,960 -96,965 -94,971 -92,977 -91,983 -89,989 -87,995 -85,1001 -83,1006 -81,1012 -79,1018 -76,1024 -74,1029 -72,1035 -69,1040 -67,1046 -64,1052 -62,1057 -59,1063 -56,1068 -53,1074 -50,1079 -47,1085 -44,1090 -41,1095 -38,1101 -35,1106 -32,1111 -28,1117 -25,1122 -22,1127 -18,1132 -15,1138 -12,1143 -8,1148 -4,1153 -1,1158 3,1163 7,1168 11,1173 14,1178 18,1183 22,1188 26,1192 30,1197 34,1202 39,1207 43,1211 47,1216 51,1221 55,1225 59,1230 64,1235 68,1239 73,1243 77,1248 82,1252 87,1256 91,1260 96,1264 101,1268 106,1272 111,1276 116,1280 121,1284 126,1288 131,1292 136,1295 140,1299 145,1303 150,1306 154,1309 158,1312 163,1315 167,1318 170,1321 174,1324 178,1326 181,1329 185,1331 188,1334 191,1336 194,1338 197,1340 199,1342 202,1344 204,1346 206,1347 209,1349 211,1351 213,1352 215,1354 217,1355 219,1356 221,1358 223,1359 225,1360 227,1361 229,1362 231,1363 233,1364 236,1365 238,1366 241,1366 243,1367 245,1367 247,1368 249,1368 252,1368 255,1368 259,1368 263,1367 267,1365 271,1364 275,1361 278,1359 281,1356 283,1353 286,1350 288,1347 290,1344 292,1341 293,1337 294,1334 294,1330 295,1326 296,1322 296,1318 296,1315 295,1310 295,1306 294,1303 294,1301 293,1298 293,1296 292,1294 292,1291 291,1288 291,1286 290,1283 289,1280 289,1278 288,1275 287,1272 286,1269 285,1266 284,1263 284,1259 283,1256 282,1253 281,1249 280,1246 279,1242 278,1239 277,1235 276,1231 275,1227 274,1223 273,1219 272,1215 272,1211 271,1207 270,1203 269,1198 268,1194 267,1190 266,1185 265,1181 264,1176 263,1171 262,1167 261,1162 260,1157 259,1153 258,1148 257,1143 256,1138 255,1133 254,1128 253,1123 252,1118 251,1113 250,1108 248,1103 247,1098 246,1093 245,1088 244,1083 243,1078 242,1073 240,1067 239,1062 238,1057 237,1052 235,1046 234,1041 233,1035 232,1030 230,1025 229,1019 228,1014 227,1008 225,1003 224,997 223,991 222,986 220,980 219,975 217,969 216,963 215,958 213,952 212,946 210,941 209,935 207,929 206,924 204,918 203,912 201,907 199,901 198,895 196,889 194,884 193,878 191,872 189,866 187,861 185,855 184,849 182,844 180,838 178,832 176,826 174,820 172,815 170,809 169,806 " />
    <polyline vector-effect="non-scaling-stroke" fill="none" style="stroke: #EF4444; stroke-width:2" points="169,804 167,798 165,793 163,787 161,781 159,775 157,769 155,763 153,758 152,752 150,746 148,740 146,734 144,728 142,723 140,717 138,711 136,705 134,699 132,693 130,687 128,682 126,676 124,670 122,664 120,658 118,652 116,646 114,640 112,634 110,628 108,623 106,617 104,611 102,605 100,599 98,593 96,587 94,581 92,575 90,569 88,563 86,557 84,551 82,545 80,539 78,534 76,528 74,522 72,516 70,510 68,504 66,498 64,492 62,486 60,480 58,474 56,468 54,462 52,456 50,450 48,444 46,438 44,432 42,427 41,421 39,416 37,412 36,407 34,403 33,398 32,394 30,390 29,387 28,383 27,380 26,376 25,373 24,370 23,367 22,365 21,362 20,360 19,358 18,355 17,352 15,347 13,344 11,341 8,338 6,335 3,332 -1,329 -2,328 -4,327 -6,327 -8,326 -9,325 -11,325 -13,324 -15,324 -17,324 -21,324 -24,325 -28,326 -31,326 -35,326 -38,326 -41,326 -44,326 -47,325 -50,324 -53,323 -56,322 -58,320 -60,318 -62,316 -64,314 -65,312 -67,309 -68,306 -69,303 -70,300 -71,297 -71,294 -71,291 -71,287 -71,283 -71,280 -70,276 -69,271 -68,267 -67,265 -66,262 -65,259 -64,257 -63,255 -62,252 -61,250 -60,247 -59,244 -58,242 -57,239 -56,236 -55,233 -54,230 -53,227 -52,224 -51,221 -49,218 -48,215 -47,211 -46,208 -45,204 -45,200 -44,197 -43,193 -42,189 -42,185 -41,181 -41,177 -41,172 -40,168 -40,164 -40,159 -40,155 -40,151 -40,146 -40,141 -41,137 -41,132 -42,128 -42,123 -43,118 -44,113 -44,108 -45,104 -46,99 -47,94 -48,89 -49,84 -49,79 -50,74 -51,69 -52,64 -53,58 -54,53 -55,48 -56,43 -57,37 -57,32 -58,27 -59,21 -60,16 -61,11 -62,5 -63,-0 -64,-6 -64,-11 -65,-17 -66,-22 -67,-28 -68,-33 -69,-39 -69,-44 -70,-49 -71,-53 -71,-58 -72,-62 -73,-66 -73,-70 -74,-74 -74,-77 -75,-80 -75,-83 -75,-86 -76,-89 -76,-91 -76,-94 -77,-96 -78,-100 -79,-104 -81,-108 -83,-112 -84,-113 -85,-115 -87,-117 -88,-118 -89,-120 -91,-121 -94,-124 -97,-126 -100,-128 -103,-130 -107,-132 -110,-134 -112,-135 -114,-136 -116,-137 -118,-138 -120,-139 -122,-140 -125,-142 -127,-143 -129,-145 -132,-146 -134,-148 -136,-150 -139,-152 -141,-153 -143,-156 -145,-157 -148,-160 -150,-162 -152,-164 -154,-167 -156,-170 -158,-173 -160,-175 -162,-178 -163,-182 -165,-185 -167,-188 -168,-191 -169,-195 -170,-198 -171,-202 -172,-205 -173,-209 -173,-212 -174,-216 -174,-219 -174,-223 -174,-227 -174,-230 -174,-234 -174,-238 -174,-242 -173,-245 -173,-249 -172,-253 -171,-257 -170,-260 -169,-264 -167,-268 -166,-271 -164,-275 -162,-279 -160,-282 -158,-286 -156,-289 -154,-293 -152,-296 -150,-300 -148,-303 -146,-307 -144,-311 -143,-315 -141,-319 -139,-323 -138,-327 -137,-331 -136,-335 -135,-339 -134,-344 -133,-348 -132,-352 -131,-357 -131,-361 -130,-366 -130,-370 -130,-375 -130,-379 -130,-384 -131,-388 -132,-393 -133,-397 -134,-401 -135,-406 -136,-410 -138,-414 -140,-418 -142,-422 -144,-426 -146,-430 -149,-433 -151,-437 -154,-440 -156,-443 -159,-447 -162,-450 -164,-453 -167,-456 -170,-458 -173,-461 -176,-464 -179,-466 -183,-469 -185,-471 -188,-474 -191,-476 -194,-479 -196,-482 -198,-485 -200,-488 -203,-491 -205,-494 -206,-498 -208,-501 -210,-504 -211,-507 -213,-510 -214,-514 -215,-517 -216,-520 -217,-524 -218,-527 -218,-531 -219,-534 -220,-538 -220,-541 -220,-545 -220,-548 -220,-552 -221,-556 -221,-559 -221,-563 -220,-567 -220,-571 -220,-575 -219,-579 -219,-583 -218,-587 -218,-591 -217,-595 -217,-598 -216,-602 -215,-606 -214,-610 -212,-614 -211,-617 -209,-621 -208,-624 -206,-627 -204,-630 -202,-633 -199,-636 -197,-639 -194,-641 -192,-644 -189,-646 -187,-649 -184,-651 -181,-653 -179,-655 -176,-658 -173,-660 -171,-662 -168,-664 -165,-665 -162,-667 -159,-669 -157,-670 -154,-672 -151,-674 -148,-675 -145,-677 -143,-679 -140,-681 -138,-682 -135,-684 -133,-686 -130,-688 -128,-690 -126,-692 -124,-694 -122,-697 -120,-699 -118,-701 -116,-704 -114,-706 -112,-708 -111,-711 -109,-713 -108,-716 -107,-719 -105,-722 -104,-725 -103,-728 -101,-731 -100,-734 -99,-737 -98,-740 -97,-743 -96,-747 -95,-750 -95,-754 -94,-757 -93,-761 -92,-765 -91,-768 -91,-772 -90,-776 -89,-780 -88,-784 -87,-788 -87,-792 -86,-796 -85,-800 -84,-804 -83,-808 -82,-813 -81,-817 -80,-822 -79,-826 -78,-831 -77,-835 -76,-840 -75,-844 -74,-849 -73,-854 -72,-859 -71,-863 -70,-868 -69,-873 -68,-878 -67,-883 -67,-888 -66,-893 -65,-898 -64,-903 -64,-908 -63,-913 -62,-919 -62,-924 -61,-929 -60,-935 -60,-940 -59,-945" />
    <polyline vector-effect="non-scaling-stroke" fill="none" style="stroke: #3B82F6; stroke-width:2" points=" -59,-945 -59,-951 -59,-956 -58,-962 -58,-967 -58,-973 -58,-978 -58,-984 -58,-989 -58,-995 -58,-1001 -58,-1006 -58,-1012 -58,-1018 -58,-1023 -58,-1029 -58,-1035 -58,-1041 -58,-1046 -59,-1052 -59,-1058 -59,-1064 -59,-1070 -59,-1076 -59,-1081 -60,-1087 -60,-1093 -60,-1099 -60,-1105 -60,-1111 -60,-1117 -61,-1123 -61,-1129 -61,-1134 -61,-1140 -61,-1146 -62,-1152 -62,-1158 -62,-1164 -62,-1170 -62,-1176 -63,-1182 -63,-1188 -63,-1194 -63,-1200 -64,-1206 -64,-1212 -64,-1218 -65,-1224 -65,-1230 -65,-1236 -66,-1243 -66,-1249 -66,-1255 -67,-1261 -67,-1267 -67,-1272 -67,-1277 -68,-1282 -68,-1287 -68,-1291 -69,-1296 -69,-1300 -69,-1303 -70,-1307 -71,-1311 -71,-1314 -72,-1317 -72,-1320 -73,-1322 -74,-1325 -75,-1328 -76,-1330 -77,-1332 -78,-1335 -80,-1337 -81,-1339 -83,-1341 -84,-1343 -86,-1345 -88,-1347 -90,-1349 -92,-1351 -93,-1352 -95,-1354 -97,-1356 -99,-1357 -101,-1359 -103,-1360 -106,-1361 -108,-1362 -110,-1363 -112,-1364 -114,-1365 -117,-1365 -119,-1366 -121,-1367 -123,-1367 -126,-1368 -128,-1368 -130,-1368 -133,-1368 -135,-1368 -137,-1368 -139,-1368 -141,-1368 -144,-1368 -146,-1367 -150,-1366 -154,-1365 -158,-1363 -162,-1362 -165,-1360 -169,-1357 -172,-1355 -175,-1352 -178,-1350 -180,-1347 -183,-1343 -185,-1340 -187,-1338 -188,-1336 -189,-1334 -191,-1332 -192,-1329 -193,-1327 -194,-1325 -195,-1322 -196,-1320 -197,-1317 -198,-1314 -199,-1312 -200,-1309 -200,-1306 -201,-1303 -201,-1300 -202,-1297 -202,-1294 -202,-1291 -202,-1287 -202,-1284 -202,-1281 -202,-1278 -202,-1274 -201,-1271 -201,-1268 -200,-1264 -199,-1261 -198,-1257 -197,-1254 -196,-1251 -195,-1247 -193,-1243 -192,-1240 -190,-1236 -189,-1233 -187,-1229 -185,-1226 -183,-1222 -180,-1219 -178,-1215 -176,-1211 -173,-1208 -171,-1204 -169,-1200 -166,-1197 -164,-1193 -161,-1189 -159,-1185 -156,-1181 -154,-1177 -151,-1173 -149,-1169 -146,-1164 -144,-1160 -142,-1156 -139,-1151 -137,-1147 -135,-1143 -133,-1138 -132,-1134 -130,-1129 -128,-1125 -127,-1120 -126,-1116 -125,-1111 -123,-1107 -123,-1102 -122,-1098 -121,-1094 -121,-1089 -120,-1085 -120,-1080 -119,-1076 -119,-1072 -119,-1067 -118,-1063 -118,-1059 -118,-1055 -118,-1050 -118,-1046 -119,-1042 -119,-1037 -119,-1033 -119,-1028 -120,-1023 -121,-1019 -121,-1014 -122,-1010 -123,-1005 -124,-1000 -125,-996 -126,-991 -127,-986 -129,-982 -130,-977 -132,-972 -134,-967 -135,-963 -137,-958 -139,-953 -141,-948 -143,-944 -145,-939 -147,-934 -149,-929 -151,-924 -153,-919 -155,-914 -157,-909 -159,-905 -161,-900 -163,-895 -165,-890 -167,-886 -168,-881 -170,-876 -171,-871 -172,-866 -173,-862 -173,-857 -174,-853 -175,-848 -175,-844 -176,-840 -176,-836 -176,-832 -177,-829 -177,-826 -177,-823 -178,-820 -178,-817 -179,-814 -179,-811 -180,-809 -181,-806 -182,-803 -183,-801 -184,-798 -185,-795 -186,-793 -187,-791 -188,-788 -190,-786 -191,-784 -193,-782 -194,-779 -196,-777 -197,-775 -199,-773 -201,-772 -203,-770 -205,-768 -207,-767 -209,-765 -212,-764 -214,-762 -216,-760 -219,-759 -222,-758 -224,-756 -227,-755 -230,-754 -233,-753 -235,-751 -238,-750 -241,-748 -244,-747 -247,-745 -250,-743 -252,-742 -255,-740 -258,-738 -260,-736 -263,-734 -265,-732 -268,-730 -270,-727 -272,-725 -274,-722 -276,-720 -278,-717 -279,-714 -281,-712 -282,-709 -284,-706 -285,-703 -287,-701 -288,-698 -289,-695 -290,-692 -291,-689 -292,-687 -293,-684 -294,-681 -295,-678 -295,-675 -296,-672 -296,-670 -297,-667 -297,-664 -297,-660 -298,-657 -298,-654 -298,-650 -299,-647 -299,-643 -299,-640 -299,-636 -299,-632 -299,-629 -298,-625 -298,-621 -298,-617 -298,-613 -298,-609 -297,-605 -297,-601 -296,-596 -296,-592 -295,-588 -294,-583 -294,-579 -293,-574 -292,-570 -291,-565 -290,-561 -288,-556 -287,-552 -286,-547 -284,-542 -283,-538 -281,-533 -279,-529 -277,-524 -275,-519 -273,-515 -271,-510 -269,-505 -267,-501 -265,-496 -262,-491 -260,-486 -258,-482 -256,-477 -253,-472 -251,-467 -249,-462 -247,-457 -245,-452 -243,-447 -241,-442 -239,-437 -237,-432 -235,-426 -233,-421 -231,-416 -230,-410 -228,-405 -226,-400 -224,-394 -223,-389 -221,-383 -220,-378 -219,-373 -217,-367 -216,-362 -215,-356 -214,-351 -213,-346 -213,-340 -212,-335 -212,-330 -211,-324 -211,-319 -211,-314 -211,-309 -211,-303 -211,-298 -211,-293 -211,-287 -211,-282 -211,-276 -211,-271 -211,-265 -211,-260 -211,-255 -210,-249 -210,-244 -210,-238 -209,-232 -208,-227 -208,-221 -207,-216 -207,-210 -206,-204 -205,-199 -204,-193 -203,-187 -202,-182 -200,-176 -199,-170 -197,-165 -196,-159 -194,-153 -193,-148 -191,-142 -190,-136 -188,-131 -186,-125 -184,-120 -181,-114 -179,-109 -177,-103 -174,-98 -171,-93 -169,-87 -166,-82 -163,-77 -160,-72 -156,-67 -153,-62 -150,-57 -147,-52 -144,-47 -142,-42 -139,-37 -136,-32 -134,-27 -131,-22 -129,-17 -126,-12 -124,-7" />
    <polyline vector-effect="non-scaling-stroke" fill="none" style="stroke: #FBBF24; stroke-width:2" points=" -124,-7 -122,-2 -120,3 -118,8 -115,14 -113,19 -111,24 -109,30 -108,35 -106,41 -104,46 -103,52 -101,57 -100,63 -99,69 -97,74 -96,79 -95,85 -94,91 -93,97 -92,103 -92,108 -91,114 -91,120 -90,126 -90,132 -90,138 -89,144 -89,150 -89,156 -89,162 -89,168 -89,174 -89,180 -89,186 -90,192 -90,198 -91,204 -91,210 -92,216 -93,222 -94,228 -96,234 -97,240 -98,246 -99,251 -100,256 -101,261 -102,265 -103,270 -104,274 -104,278 -105,282 -105,285 -106,289 -106,292 -107,295 -107,298 -107,300 -107,303 -107,306 -107,309 -107,312 -106,314 -106,317 -106,320 -105,323 -105,325 -104,328 -103,330 -102,333 -101,335 -100,338 -98,340 -97,342 -96,345 -95,347 -93,349 -92,351 -90,353 -88,356 -87,358 -85,360 -83,362 -81,365 -78,368 -76,370 -73,372 -71,374 -69,376 -66,378 -64,380 -62,382 -60,385 -58,387 -55,389 -53,392 -51,394 -49,397 -47,400 -44,402 -42,405 -40,408 -39,411 -37,414 -35,417 -33,420 -32,424 -30,427 -29,430 -27,434 -26,437 -25,441 -23,445 -22,448 -21,452 -20,456 -19,460 -18,464 -18,468 -17,472 -17,476 -16,480 -16,485 -16,489 -15,493 -15,497 -15,501 -15,505 -15,509 -16,513 -16,516 -17,520 -18,524 -19,528 -20,532 -21,536 -22,540 -23,544 -24,548 -26,552 -27,557 -29,561 -30,565 -32,569 -34,574 -35,578 -37,582 -40,586 -42,591 -44,595 -46,599 -48,604 -50,608 -53,612 -55,617 -58,621 -60,626 -63,630 -65,635 -68,639 -70,644 -73,648 -75,653 -78,658 -81,662 -83,667 -86,672 -88,677 -90,682 -92,687 -94,692 -96,697 -98,702 -100,707 -102,712 -104,718 -105,723 -107,728 -109,734 -110,739 -112,745 -113,750 -114,756 -115,762 -116,767 -117,773 -118,779 -119,784 -120,790 -120,796 -121,802 -121,808 -121,813 -122,819 -122,824 -122,830 -121,836 -121,842 -121,848 -120,854 -120,860 -119,866 -119,872 -118,878 -117,884 -116,889 -114,895 -113,901 -111,907 -110,913 -108,919 -107,924 -105,930 -103,936 -102,942 -100,948 -99,954 -97,960 -96,965 -94,971 -92,977 -91,983 -89,989 -87,995 -85,1001 -83,1006 -81,1012 -79,1018 -76,1024 -74,1029 -72,1035 -69,1040 -67,1046 -64,1052 -62,1057 -59,1063 -56,1068 -53,1074 -50,1079 -47,1085 -44,1090 -41,1095 -38,1101 -35,1106 -32,1111 -28,1117 -25,1122 -22,1127 -18,1132 -15,1138 -12,1143 -8,1148 -4,1153 -1,1158 3,1163 7,1168 11,1173 14,1178 18,1183 22,1188 26,1192 30,1197 34,1202 39,1207 43,1211 47,1216 51,1221 55,1225 59,1230 64,1235 68,1239 73,1243 77,1248 82,1252 87,1256 91,1260 96,1264 101,1268 106,1272 111,1276 116,1280 121,1284 126,1288 131,1292 136,1295 140,1299 145,1303 150,1306 154,1309 158,1312 163,1315 167,1318 170,1321 174,1324 178,1326 181,1329 185,1331 188,1334 191,1336 194,1338 197,1340 199,1342 202,1344 204,1346 206,1347 209,1349 211,1351 213,1352 215,1354 217,1355 219,1356 221,1358 223,1359 225,1360 227,1361 229,1362 231,1363 233,1364 236,1365 238,1366 241,1366 243,1367 245,1367 247,1368 249,1368 252,1368 255,1368 259,1368 263,1367 267,1365 271,1364 275,1361 278,1359 281,1356 283,1353 286,1350 288,1347 290,1344 292,1341 293,1337 294,1334 294,1330 295,1326 296,1322 296,1318 296,1315 295,1310 295,1306 294,1303 294,1301 293,1298 293,1296 292,1294 292,1291 291,1288 291,1286 290,1283 289,1280 289,1278 288,1275 287,1272 286,1269 285,1266 284,1263 284,1259 283,1256 282,1253 281,1249 280,1246 279,1242 278,1239 277,1235 276,1231 275,1227 274,1223 273,1219 272,1215 272,1211 271,1207 270,1203 269,1198 268,1194 267,1190 266,1185 265,1181 264,1176 263,1171 262,1167 261,1162 260,1157 259,1153 258,1148 257,1143 256,1138 255,1133 254,1128 253,1123 252,1118 251,1113 250,1108 248,1103 247,1098 246,1093 245,1088 244,1083 243,1078 242,1073 240,1067 239,1062 238,1057 237,1052 235,1046 234,1041 233,1035 232,1030 230,1025 229,1019 228,1014 227,1008 225,1003 224,997 223,991 222,986 220,980 219,975 217,969 216,963 215,958 213,952 212,946 210,941 209,935 207,929 206,924 204,918 203,912 201,907 199,901 198,895 196,889 194,884 193,878 191,872 189,866 187,861 185,855 184,849 182,844 180,838 178,832 176,826 174,820 172,815 170,809 169,806" />
    <circle id="minimapCarCircle" cx="169" cy="804" r="17" stroke="black" stroke-width="13" fill="white" />
</g>
</svg>
