<?xml version="1.0" encoding="utf-8"?>
<svg xmlns="http://www.w3.org/2000/svg" xmlns:xlink="http://www.w3.org/1999/xlink" preserveAspectRatio="xMidYMid meet" height="100%" viewBox="-200 -303 400 642" class="mx-auto max-w-xs">
<g transform="rotate(-90 0 0) scale(0.38 0.38)">
    <polygon vector-effect="non-scaling-stroke" fill="none" style="stroke: #374151; stroke-width:8" points=" -180,-240 -175,-238 -170,-236 -165,-233 -161,-231 -156,-228 -151,-225 -147,-223 -142,-220 -137,-217 -132,-214 -128,-212 -123,-209 -118,-206 -113,-203 -108,-200 -104,-197 -99,-194 -94,-191 -89,-188 -84,-185 -79,-182 -74,-179 -69,-175 -63,-172 -58,-169 -53,-165 -47,-162 -42,-159 -36,-155 -31,-152 -25,-148 -20,-145 -14,-142 -8,-138 -3,-135 3,-131 9,-128 15,-124 21,-121 27,-117 32,-114 38,-110 44,-106 50,-103 56,-99 62,-96 68,-92 75,-88 81,-84 87,-81 93,-78 99,-74 105,-70 111,-67 117,-63 123,-60 128,-57 133,-54 137,-51 141,-48 145,-46 149,-44 152,-42 156,-40 159,-38 162,-36 164,-34 167,-32 170,-31 172,-29 174,-27 176,-26 179,-24 181,-23 183,-21 184,-19 186,-18 188,-16 189,-14 191,-12 192,-10 193,-8 194,-6 194,-4 195,-2 195,0 195,2 195,4 195,7 194,9 194,11 193,13 192,15 189,19 188,21 186,22 185,24 183,25 181,27 179,29 177,30 175,32 173,33 171,35 169,36 167,38 164,40 162,41 160,43 158,45 156,47 154,49 151,50 149,52 148,54 146,56 144,59 142,61 141,63 140,66 138,68 137,71 136,73 135,76 134,79 134,82 133,84 133,87 133,90 132,93 132,96 133,99 133,102 133,105 133,108 134,111 134,114 134,117 134,120 134,123 134,126 134,129 134,133 133,136 133,139 132,142 132,145 131,148 130,151 129,154 127,157 126,160 125,163 123,166 121,169 120,172 118,174 116,177 113,180 111,182 109,185 107,187 104,189 101,192 99,194 96,196 93,198 90,200 87,201 84,203 81,205 78,206 75,208 72,209 69,211 65,212 62,214 59,215 55,216 52,217 49,218 45,219 41,220 38,221 34,222 31,223 27,224 24,224 20,225 16,226 13,226 9,227 5,227 1,227 -3,228 -7,228 -11,228 -15,228 -19,228 -23,228 -27,228 -31,228 -35,227 -39,227 -43,226 -47,226 -51,225 -55,225 -59,224 -63,223 -67,222 -71,221 -75,220 -79,219 -83,217 -88,216 -91,214 -95,213 -99,211 -103,209 -107,207 -111,206 -115,204 -119,202 -123,200 -127,198 -130,196 -134,194 -138,191 -142,189 -146,187 -150,184 -154,182 -158,180 -161,177 -165,175 -169,173 -173,170 -177,168 -181,166 -185,163 -189,161 -193,159 -197,156 -201,154 -205,151 -209,149 -213,146 -217,144 -221,141 -226,139 -230,136 -234,134 -238,131 -242,129 -246,126 -250,124 -255,121 -259,119 -263,116 -267,114 -271,111 -275,109 -279,107 -283,104 -286,102 -290,100 -293,98 -296,97 -299,95 -302,93 -304,92 -307,90 -310,88 -313,87 -315,85 -318,84 -321,83 -323,81 -326,80 -328,79 -331,78 -334,77 -337,75 -339,74 -342,74 -345,73 -348,72 -351,72 -354,71 -357,71 -360,70 -363,70 -366,70 -369,70 -372,70 -375,70 -379,70 -382,71 -385,71 -388,72 -392,72 -395,73 -398,74 -401,75 -405,76 -408,78 -411,79 -414,80 -417,82 -420,84 -423,86 -426,88 -429,90 -432,92 -435,94 -438,96 -441,98 -444,100 -447,102 -450,104 -454,106 -457,108 -460,109 -463,111 -467,112 -470,113 -474,114 -477,115 -481,116 -485,117 -488,117 -492,118 -496,118 -500,118 -503,118 -507,117 -511,117 -514,116 -518,115 -522,114 -525,113 -530,111 -533,110 -536,108 -540,106 -543,104 -546,102 -549,99 -552,97 -555,94 -558,92 -561,89 -564,86 -566,84 -569,81 -572,78 -575,76 -578,73 -582,70 -585,68 -588,66 -591,64 -595,61 -599,60 -602,58 -606,56 -610,55 -614,54 -617,53 -621,52 -625,51 -629,51 -633,51 -637,50 -641,51 -645,51 -649,51 -653,52 -657,52 -661,53 -665,54 -669,55 -673,56 -677,57 -681,59 -685,60 -689,62 -692,63 -696,65 -700,67 -703,69 -707,71 -710,73 -713,75 -717,78 -720,80 -723,83 -726,86 -728,89 -731,92 -733,95 -735,98 -738,102 -740,105 -741,108 -743,112 -745,115 -746,119 -747,123 -748,126 -749,130 -750,134 -750,138 -751,141 -751,145 -751,149 -751,152 -750,156 -750,159 -749,163 -748,166 -747,170 -745,173 -744,176 -742,179 -740,181 -738,184 -735,186 -733,188 -730,190 -727,192 -724,193 -722,194 -719,195 -716,196 -713,197 -710,197 -707,197 -704,197 -701,197 -698,196 -695,196 -692,196 -689,195 -686,195 -683,195 -680,194 -676,194 -673,194 -670,194 -666,193 -663,193 -660,193 -656,193 -653,193 -649,193 -646,194 -642,194 -638,194 -635,195 -631,195 -627,196 -623,196 -619,197 -615,198 -612,198 -608,199 -604,200 -599,201 -595,202  -595,202 -591,203 -587,204 -583,205 -579,205 -574,206 -570,207 -566,208 -561,209 -557,210 -553,211 -548,212 -544,213 -539,214 -535,215 -530,215 -525,216 -521,217 -516,218 -511,218 -507,219 -502,219 -497,220 -492,220 -487,220 -482,220 -477,220 -472,221 -467,221 -462,221 -457,220 -452,220 -447,220 -442,220 -437,220 -432,220 -426,219 -421,219 -416,219 -411,219 -406,219 -401,218 -396,218 -390,218 -385,218 -380,218 -374,218 -369,217 -364,217 -358,217 -353,217 -347,217 -343,216 -337,216 -332,216 -326,216 -321,216 -315,215 -310,215 -304,215 -299,215 -293,215 -288,215 -282,215 -276,214 -271,214 -265,214 -260,214 -254,214 -248,214 -243,214 -237,214 -231,215 -226,215 -220,216 -214,216 -209,217 -203,218 -198,219 -192,221 -187,222 -181,224 -176,225 -171,227 -165,229 -160,231 -155,233 -149,235 -144,236 -138,238 -133,240 -128,242 -122,244 -117,246 -111,248 -106,250 -101,251 -95,253 -90,255 -84,257 -79,259 -75,260 -68,262 -63,264 -57,266 -52,267 -46,269 -41,271 -35,272 -30,274 -24,275 -18,277 -13,278 -7,279 -1,280 5,282 10,282 16,283 22,284 28,285 34,286 40,286 45,287 51,288 57,288 63,288 69,289 75,289 81,289 87,289 93,289 99,289 105,288 111,288 117,288 122,287 128,287 134,286 140,286 146,285 152,284 158,283 164,282 170,281 176,280 182,279 187,277 193,276 199,274 205,273 211,271 216,269 222,267 228,265 233,264 239,262 245,260 250,258 256,256 262,254 268,252 273,250 279,248 285,246 290,243 296,241 302,239 307,237 313,235 318,233 324,231 330,228 336,226 341,224 347,222 353,220 358,218 363,216 369,214 375,211 381,209 387,207 392,205 398,202 404,200 409,198 415,196 421,193 427,191 432,189 438,187 444,184 449,182 455,180 460,178 466,175 472,173 477,171 483,168 489,166 494,163 500,161 505,158 511,156 516,153 522,150 527,148 533,145 538,142 544,139 549,137 554,134 559,131 564,129 568,126 573,124 577,121 581,119 585,117 589,114 593,112 596,110 600,108 603,106 606,104 610,102 613,100 616,98 619,96 621,95 624,93 627,91 629,90 631,88 634,87 636,85 638,84 640,82 642,81 644,80 646,78 647,77 649,76 651,74 653,73 654,71 656,70 657,68 659,67 660,65 661,63 662,61 662,59 663,57 663,55 663,53 663,51 663,50 662,48 662,46 661,44 660,42 659,41 658,39 656,37 653,34 650,32 648,31 647,30 645,29 643,28 641,27 639,25 638,24 636,23 634,22 632,21 630,20 628,18 626,17 625,16 623,14 621,13 619,11 617,10 616,8 614,6 613,4 611,2 610,-0 608,-2 607,-5 606,-7 605,-9 604,-12 603,-14 603,-17 602,-20 602,-22 602,-25 601,-28 602,-30 602,-33 602,-36 603,-39 603,-41 604,-44 605,-46 607,-49 608,-51 609,-54 611,-56 613,-58 615,-60 617,-62 619,-64 621,-66 624,-67 626,-68 629,-69 631,-70 634,-71 637,-71 640,-72 643,-72 645,-72 648,-72 651,-72 654,-72 657,-72 660,-71 663,-71 666,-71 668,-71 671,-71 674,-71 677,-71 680,-71 683,-71 686,-71 688,-72 691,-72 694,-73 696,-74 699,-75 702,-76 704,-77 707,-78 709,-80 711,-82 714,-83 716,-85 718,-87 720,-89 722,-91 724,-93 726,-95 727,-98 729,-100 731,-102 732,-104 733,-106 735,-108 736,-110 737,-112 738,-114 740,-116 742,-119 743,-122 745,-125 746,-128 748,-130 749,-133 750,-136 750,-139 750,-142 749,-144 748,-147 746,-149 744,-151 742,-152 740,-153 738,-154 736,-155 733,-156 732,-157 730,-159 729,-161 728,-163 727,-165 727,-167 727,-169 727,-171 728,-173 728,-175 729,-178 729,-181 730,-184 731,-187 732,-190 733,-194 734,-197 735,-199 736,-201 736,-203 737,-205 738,-208 739,-210 739,-212 740,-215 741,-219 742,-222 743,-224 744,-227 745,-230 746,-233 746,-235 746,-238 746,-240 745,-243 744,-245 742,-247 740,-249 738,-251 736,-252 733,-253 730,-254 727,-255 723,-255 720,-256 717,-256 715,-256 713,-256 710,-256 708,-257 706,-257 703,-257 701,-257 698,-257 696,-257 693,-257 690,-257 688,-258 685,-258 682,-258 679,-258 676,-258  676,-258 673,-258 669,-259 666,-259 663,-259 659,-259 655,-259 652,-259 648,-259 644,-260 641,-260 637,-260 633,-260 628,-260 624,-260 620,-260 615,-260 611,-261 606,-261 602,-261 597,-261 592,-261 587,-261 582,-261 577,-261 571,-262 566,-262 560,-262 555,-262 549,-262 543,-262 537,-263 531,-263 525,-263 519,-263 512,-263 506,-264 500,-264 493,-264 486,-264 479,-265 473,-265 466,-265 459,-265 451,-266 444,-266 437,-266 430,-266 422,-267 415,-267 407,-267 400,-268 392,-268 384,-268 376,-268 369,-269 361,-269 353,-269 345,-270 337,-270 329,-270 321,-270 312,-271 304,-271 296,-271 288,-272 279,-272 271,-272 262,-272 254,-273 245,-273 237,-273 228,-273 219,-274 211,-274 202,-274 193,-274 185,-275 176,-275 167,-275 158,-276 149,-276 140,-276 131,-277 122,-277 113,-277 104,-278 95,-278 86,-278 77,-279 68,-279 59,-279 49,-280 40,-280 31,-281 22,-281 12,-281 3,-282 -6,-282 -16,-282 -25,-283 -35,-283 -44,-283 -53,-284 -63,-284 -72,-285 -82,-285 -91,-285 -101,-286 -110,-286 -120,-286 -129,-287 -139,-287 -149,-288 -158,-288 -168,-288 -177,-289 -187,-289 -197,-289 -206,-290 -216,-290 -226,-290 -235,-291 -245,-291 -255,-292 -265,-292 -274,-292 -284,-293 -294,-293 -304,-293 -313,-294 -323,-294 -333,-295 -343,-295 -352,-295 -362,-296 -372,-296 -381,-297 -392,-297 -401,-297 -411,-298 -420,-298 -429,-299 -438,-299 -446,-299 -453,-300 -461,-300 -468,-300 -475,-301 -482,-301 -488,-301 -494,-301 -500,-302 -506,-302 -511,-302 -516,-302 -520,-302 -525,-302 -529,-303 -532,-303 -536,-303 -539,-303 -542,-303 -544,-303 -547,-303 -549,-303 -552,-302 -554,-302 -556,-302 -560,-301 -563,-299 -566,-298 -568,-295 -570,-293 -572,-290 -572,-288 -573,-286 -573,-285 -573,-283 -573,-281 -573,-278 -573,-276 -572,-274 -571,-272 -571,-270 -570,-269 -568,-267 -567,-265 -566,-263 -564,-262 -563,-260 -561,-258 -560,-257 -558,-255 -556,-253 -554,-252 -552,-250 -550,-249 -548,-247 -546,-246 -544,-244 -542,-243 -540,-241 -537,-240 -535,-238 -533,-236 -530,-235 -528,-233 -525,-232 -523,-230 -520,-228 -517,-227 -515,-225 -512,-224 -509,-222 -506,-221 -503,-219 -501,-218 -498,-217 -495,-215 -491,-214 -488,-213 -485,-212 -482,-211 -479,-210 -475,-209 -472,-209 -468,-208 -465,-208 -461,-208 -458,-208 -454,-208 -451,-208 -447,-209 -443,-209 -440,-210 -436,-211 -432,-212 -429,-213 -425,-214 -421,-215 -418,-217 -414,-218 -410,-220 -407,-222 -403,-223 -399,-225 -395,-227 -392,-229 -388,-230 -384,-232 -380,-234 -376,-236 -372,-238 -368,-240 -364,-241 -360,-243 -356,-245 -351,-247 -347,-248 -343,-250 -338,-252 -334,-253 -329,-254 -325,-255 -320,-257 -315,-258 -311,-258 -306,-259 -301,-260 -296,-261 -292,-261 -287,-261 -282,-262 -277,-262 -272,-262 -267,-262 -262,-262 -257,-262 -252,-261 -247,-261 -242,-260 -237,-259 -231,-258 -227,-257 -222,-256 -217,-254 -212,-253 -207,-251 -202,-249 -197,-248 -193,-246 -188,-244 -183,-241 "></polygon>
    <polyline vector-effect="non-scaling-stroke" fill="none" style="stroke: #EF4444; stroke-width:2" points="-180,-240 -175,-238 -170,-236 -165,-233 -161,-231 -156,-228 -151,-225 -147,-223 -142,-220 -137,-217 -132,-214 -128,-212 -123,-209 -118,-206 -113,-203 -108,-200 -104,-197 -99,-194 -94,-191 -89,-188 -84,-185 -79,-182 -74,-179 -69,-175 -63,-172 -58,-169 -53,-165 -47,-162 -42,-159 -36,-155 -31,-152 -25,-148 -20,-145 -14,-142 -8,-138 -3,-135 3,-131 9,-128 15,-124 21,-121 27,-117 32,-114 38,-110 44,-106 50,-103 56,-99 62,-96 68,-92 75,-88 81,-84 87,-81 93,-78 99,-74 105,-70 111,-67 117,-63 123,-60 128,-57 133,-54 137,-51 141,-48 145,-46 149,-44 152,-42 156,-40 159,-38 162,-36 164,-34 167,-32 170,-31 172,-29 174,-27 176,-26 179,-24 181,-23 183,-21 184,-19 186,-18 188,-16 189,-14 191,-12 192,-10 193,-8 194,-6 194,-4 195,-2 195,0 195,2 195,4 195,7 194,9 194,11 193,13 192,15 189,19 188,21 186,22 185,24 183,25 181,27 179,29 177,30 175,32 173,33 171,35 169,36 167,38 164,40 162,41 160,43 158,45 156,47 154,49 151,50 149,52 148,54 146,56 144,59 142,61 141,63 140,66 138,68 137,71 136,73 135,76 134,79 134,82 133,84 133,87 133,90 132,93 132,96 133,99 133,102 133,105 133,108 134,111 134,114 134,117 134,120 134,123 134,126 134,129 134,133 133,136 133,139 132,142 132,145 131,148 130,151 129,154 127,157 126,160 125,163 123,166 121,169 120,172 118,174 116,177 113,180 111,182 109,185 107,187 104,189 101,192 99,194 96,196 93,198 90,200 87,201 84,203 81,205 78,206 75,208 72,209 69,211 65,212 62,214 59,215 55,216 52,217 49,218 45,219 41,220 38,221 34,222 31,223 27,224 24,224 20,225 16,226 13,226 9,227 5,227 1,227 -3,228 -7,228 -11,228 -15,228 -19,228 -23,228 -27,228 -31,228 -35,227 -39,227 -43,226 -47,226 -51,225 -55,225 -59,224 -63,223 -67,222 -71,221 -75,220 -79,219 -83,217 -88,216 -91,214 -95,213 -99,211 -103,209 -107,207 -111,206 -115,204 -119,202 -123,200 -127,198 -130,196 -134,194 -138,191 -142,189 -146,187 -150,184 -154,182 -158,180 -161,177 -165,175 -169,173 -173,170 -177,168 -181,166 -185,163 -189,161 -193,159 -197,156 -201,154 -205,151 -209,149 -213,146 -217,144 -221,141 -226,139 -230,136 -234,134 -238,131 -242,129 -246,126 -250,124 -255,121 -259,119 -263,116 -267,114 -271,111 -275,109 -279,107 -283,104 -286,102 -290,100 -293,98 -296,97 -299,95 -302,93 -304,92 -307,90 -310,88 -313,87 -315,85 -318,84 -321,83 -323,81 -326,80 -328,79 -331,78 -334,77 -337,75 -339,74 -342,74 -345,73 -348,72 -351,72 -354,71 -357,71 -360,70 -363,70 -366,70 -369,70 -372,70 -375,70 -379,70 -382,71 -385,71 -388,72 -392,72 -395,73 -398,74 -401,75 -405,76 -408,78 -411,79 -414,80 -417,82 -420,84 -423,86 -426,88 -429,90 -432,92 -435,94 -438,96 -441,98 -444,100 -447,102 -450,104 -454,106 -457,108 -460,109 -463,111 -467,112 -470,113 -474,114 -477,115 -481,116 -485,117 -488,117 -492,118 -496,118 -500,118 -503,118 -507,117 -511,117 -514,116 -518,115 -522,114 -525,113 -530,111 -533,110 -536,108 -540,106 -543,104 -546,102 -549,99 -552,97 -555,94 -558,92 -561,89 -564,86 -566,84 -569,81 -572,78 -575,76 -578,73 -582,70 -585,68 -588,66 -591,64 -595,61 -599,60 -602,58 -606,56 -610,55 -614,54 -617,53 -621,52 -625,51 -629,51 -633,51 -637,50 -641,51 -645,51 -649,51 -653,52 -657,52 -661,53 -665,54 -669,55 -673,56 -677,57 -681,59 -685,60 -689,62 -692,63 -696,65 -700,67 -703,69 -707,71 -710,73 -713,75 -717,78 -720,80 -723,83 -726,86 -728,89 -731,92 -733,95 -735,98 -738,102 -740,105 -741,108 -743,112 -745,115 -746,119 -747,123 -748,126 -749,130 -750,134 -750,138 -751,141 -751,145 -751,149 -751,152 -750,156 -750,159 -749,163 -748,166 -747,170 -745,173 -744,176 -742,179 -740,181 -738,184 -735,186 -733,188 -730,190 -727,192 -724,193 -722,194 -719,195 -716,196 -713,197 -710,197 -707,197 -704,197 -701,197 -698,196 -695,196 -692,196 -689,195 -686,195 -683,195 -680,194 -676,194 -673,194 -670,194 -666,193 -663,193 -660,193 -656,193 -653,193 -649,193 -646,194 -642,194 -638,194 -635,195 -631,195 -627,196 -623,196 -619,197 -615,198 -612,198 -608,199 -604,200 -599,201 -595,202 "></polyline>
    <polyline vector-effect="non-scaling-stroke" fill="none" style="stroke: #3B82F6; stroke-width:2" points="-595,202 -591,203 -587,204 -583,205 -579,205 -574,206 -570,207 -566,208 -561,209 -557,210 -553,211 -548,212 -544,213 -539,214 -535,215 -530,215 -525,216 -521,217 -516,218 -511,218 -507,219 -502,219 -497,220 -492,220 -487,220 -482,220 -477,220 -472,221 -467,221 -462,221 -457,220 -452,220 -447,220 -442,220 -437,220 -432,220 -426,219 -421,219 -416,219 -411,219 -406,219 -401,218 -396,218 -390,218 -385,218 -380,218 -374,218 -369,217 -364,217 -358,217 -353,217 -347,217 -343,216 -337,216 -332,216 -326,216 -321,216 -315,215 -310,215 -304,215 -299,215 -293,215 -288,215 -282,215 -276,214 -271,214 -265,214 -260,214 -254,214 -248,214 -243,214 -237,214 -231,215 -226,215 -220,216 -214,216 -209,217 -203,218 -198,219 -192,221 -187,222 -181,224 -176,225 -171,227 -165,229 -160,231 -155,233 -149,235 -144,236 -138,238 -133,240 -128,242 -122,244 -117,246 -111,248 -106,250 -101,251 -95,253 -90,255 -84,257 -79,259 -75,260 -68,262 -63,264 -57,266 -52,267 -46,269 -41,271 -35,272 -30,274 -24,275 -18,277 -13,278 -7,279 -1,280 5,282 10,282 16,283 22,284 28,285 34,286 40,286 45,287 51,288 57,288 63,288 69,289 75,289 81,289 87,289 93,289 99,289 105,288 111,288 117,288 122,287 128,287 134,286 140,286 146,285 152,284 158,283 164,282 170,281 176,280 182,279 187,277 193,276 199,274 205,273 211,271 216,269 222,267 228,265 233,264 239,262 245,260 250,258 256,256 262,254 268,252 273,250 279,248 285,246 290,243 296,241 302,239 307,237 313,235 318,233 324,231 330,228 336,226 341,224 347,222 353,220 358,218 363,216 369,214 375,211 381,209 387,207 392,205 398,202 404,200 409,198 415,196 421,193 427,191 432,189 438,187 444,184 449,182 455,180 460,178 466,175 472,173 477,171 483,168 489,166 494,163 500,161 505,158 511,156 516,153 522,150 527,148 533,145 538,142 544,139 549,137 554,134 559,131 564,129 568,126 573,124 577,121 581,119 585,117 589,114 593,112 596,110 600,108 603,106 606,104 610,102 613,100 616,98 619,96 621,95 624,93 627,91 629,90 631,88 634,87 636,85 638,84 640,82 642,81 644,80 646,78 647,77 649,76 651,74 653,73 654,71 656,70 657,68 659,67 660,65 661,63 662,61 662,59 663,57 663,55 663,53 663,51 663,50 662,48 662,46 661,44 660,42 659,41 658,39 656,37 653,34 650,32 648,31 647,30 645,29 643,28 641,27 639,25 638,24 636,23 634,22 632,21 630,20 628,18 626,17 625,16 623,14 621,13 619,11 617,10 616,8 614,6 613,4 611,2 610,-0 608,-2 607,-5 606,-7 605,-9 604,-12 603,-14 603,-17 602,-20 602,-22 602,-25 601,-28 602,-30 602,-33 602,-36 603,-39 603,-41 604,-44 605,-46 607,-49 608,-51 609,-54 611,-56 613,-58 615,-60 617,-62 619,-64 621,-66 624,-67 626,-68 629,-69 631,-70 634,-71 637,-71 640,-72 643,-72 645,-72 648,-72 651,-72 654,-72 657,-72 660,-71 663,-71 666,-71 668,-71 671,-71 674,-71 677,-71 680,-71 683,-71 686,-71 688,-72 691,-72 694,-73 696,-74 699,-75 702,-76 704,-77 707,-78 709,-80 711,-82 714,-83 716,-85 718,-87 720,-89 722,-91 724,-93 726,-95 727,-98 729,-100 731,-102 732,-104 733,-106 735,-108 736,-110 737,-112 738,-114 740,-116 742,-119 743,-122 745,-125 746,-128 748,-130 749,-133 750,-136 750,-139 750,-142 749,-144 748,-147 746,-149 744,-151 742,-152 740,-153 738,-154 736,-155 733,-156 732,-157 730,-159 729,-161 728,-163 727,-165 727,-167 727,-169 727,-171 728,-173 728,-175 729,-178 729,-181 730,-184 731,-187 732,-190 733,-194 734,-197 735,-199 736,-201 736,-203 737,-205 738,-208 739,-210 739,-212 740,-215 741,-219 742,-222 743,-224 744,-227 745,-230 746,-233 746,-235 746,-238 746,-240 745,-243 744,-245 742,-247 740,-249 738,-251 736,-252 733,-253 730,-254 727,-255 723,-255 720,-256 717,-256 715,-256 713,-256 710,-256 708,-257 706,-257 703,-257 701,-257 698,-257 696,-257 693,-257 690,-257 688,-258 685,-258 682,-258 679,-258 676,-258 "></polyline>
    <polyline vector-effect="non-scaling-stroke" fill="none" style="stroke: #FBBF24; stroke-width:2" points="676,-258 673,-258 669,-259 666,-259 663,-259 659,-259 655,-259 652,-259 648,-259 644,-260 641,-260 637,-260 633,-260 628,-260 624,-260 620,-260 615,-260 611,-261 606,-261 602,-261 597,-261 592,-261 587,-261 582,-261 577,-261 571,-262 566,-262 560,-262 555,-262 549,-262 543,-262 537,-263 531,-263 525,-263 519,-263 512,-263 506,-264 500,-264 493,-264 486,-264 479,-265 473,-265 466,-265 459,-265 451,-266 444,-266 437,-266 430,-266 422,-267 415,-267 407,-267 400,-268 392,-268 384,-268 376,-268 369,-269 361,-269 353,-269 345,-270 337,-270 329,-270 321,-270 312,-271 304,-271 296,-271 288,-272 279,-272 271,-272 262,-272 254,-273 245,-273 237,-273 228,-273 219,-274 211,-274 202,-274 193,-274 185,-275 176,-275 167,-275 158,-276 149,-276 140,-276 131,-277 122,-277 113,-277 104,-278 95,-278 86,-278 77,-279 68,-279 59,-279 49,-280 40,-280 31,-281 22,-281 12,-281 3,-282 -6,-282 -16,-282 -25,-283 -35,-283 -44,-283 -53,-284 -63,-284 -72,-285 -82,-285 -91,-285 -101,-286 -110,-286 -120,-286 -129,-287 -139,-287 -149,-288 -158,-288 -168,-288 -177,-289 -187,-289 -197,-289 -206,-290 -216,-290 -226,-290 -235,-291 -245,-291 -255,-292 -265,-292 -274,-292 -284,-293 -294,-293 -304,-293 -313,-294 -323,-294 -333,-295 -343,-295 -352,-295 -362,-296 -372,-296 -381,-297 -392,-297 -401,-297 -411,-298 -420,-298 -429,-299 -438,-299 -446,-299 -453,-300 -461,-300 -468,-300 -475,-301 -482,-301 -488,-301 -494,-301 -500,-302 -506,-302 -511,-302 -516,-302 -520,-302 -525,-302 -529,-303 -532,-303 -536,-303 -539,-303 -542,-303 -544,-303 -547,-303 -549,-303 -552,-302 -554,-302 -556,-302 -560,-301 -563,-299 -566,-298 -568,-295 -570,-293 -572,-290 -572,-288 -573,-286 -573,-285 -573,-283 -573,-281 -573,-278 -573,-276 -572,-274 -571,-272 -571,-270 -570,-269 -568,-267 -567,-265 -566,-263 -564,-262 -563,-260 -561,-258 -560,-257 -558,-255 -556,-253 -554,-252 -552,-250 -550,-249 -548,-247 -546,-246 -544,-244 -542,-243 -540,-241 -537,-240 -535,-238 -533,-236 -530,-235 -528,-233 -525,-232 -523,-230 -520,-228 -517,-227 -515,-225 -512,-224 -509,-222 -506,-221 -503,-219 -501,-218 -498,-217 -495,-215 -491,-214 -488,-213 -485,-212 -482,-211 -479,-210 -475,-209 -472,-209 -468,-208 -465,-208 -461,-208 -458,-208 -454,-208 -451,-208 -447,-209 -443,-209 -440,-210 -436,-211 -432,-212 -429,-213 -425,-214 -421,-215 -418,-217 -414,-218 -410,-220 -407,-222 -403,-223 -399,-225 -395,-227 -392,-229 -388,-230 -384,-232 -380,-234 -376,-236 -372,-238 -368,-240 -364,-241 -360,-243 -356,-245 -351,-247 -347,-248 -343,-250 -338,-252 -334,-253 -329,-254 -325,-255 -320,-257 -315,-258 -311,-258 -306,-259 -301,-260 -296,-261 -292,-261 -287,-261 -282,-262 -277,-262 -272,-262 -267,-262 -262,-262 -257,-262 -252,-261 -247,-261 -242,-260 -237,-259 -231,-258 -227,-257 -222,-256 -217,-254 -212,-253 -207,-251 -202,-249 -197,-248 -193,-246 -188,-244 -183,-241"></polyline>
    <circle id="minimapCarCircle" cx="-180" cy="-240" r="17" stroke="black" stroke-width="13" fill="white"></circle>
</g>
</svg>
