<?xml version="1.0" encoding="UTF-8" standalone="no"?>
<!-- Generator: Adobe Illustrator 25.2.3, SVG Export Plug-In . SVG Version: 6.00 Build 0)  -->

<svg
   version="1.1"
   id="Layer_1"
   x="0px"
   y="0px"
   viewBox="0 0 542 866.99998"
   xml:space="preserve"
   sodipodi:docname="22 - USA(Las Vegas).svg"
   width="542"
   height="867"
   inkscape:version="1.3.2 (091e20e, 2023-11-25, custom)"
   xmlns:inkscape="http://www.inkscape.org/namespaces/inkscape"
   xmlns:sodipodi="http://sodipodi.sourceforge.net/DTD/sodipodi-0.dtd"
   xmlns="http://www.w3.org/2000/svg"
   xmlns:svg="http://www.w3.org/2000/svg"><defs
   id="defs4" /><sodipodi:namedview
   id="namedview4"
   pagecolor="#505050"
   bordercolor="#eeeeee"
   borderopacity="1"
   inkscape:showpageshadow="0"
   inkscape:pageopacity="0"
   inkscape:pagecheckerboard="0"
   inkscape:deskcolor="#d1d1d1"
   inkscape:zoom="0.89279745"
   inkscape:cx="809.2541"
   inkscape:cy="485.55246"
   inkscape:window-width="2560"
   inkscape:window-height="1494"
   inkscape:window-x="3829"
   inkscape:window-y="198"
   inkscape:window-maximized="1"
   inkscape:current-layer="Layer_1"
   showguides="true"><sodipodi:guide
     position="853.49706,816.59661"
     orientation="0,-1"
     id="guide1"
     inkscape:locked="false" /></sodipodi:namedview>
<style
   type="text/css"
   id="style1">
	.st0{fill:none;stroke:#374151;stroke-width:7.912;stroke-miterlimit:3.456;}
	.st1{fill:none;stroke:#EF4444;stroke-width:4.228;stroke-miterlimit:3.456;}
	.st2{fill:none;stroke:#3B82F6;stroke-width:4.228;stroke-miterlimit:3.456;}
	.st3{fill:none;stroke:#FBBF24;stroke-width:4.228;stroke-miterlimit:3.456;}
</style>

<g transform="rotate(90 0 0) translate(70 -450) scale(0.5 0.5)"> 
<path
   vector-effect="non-scaling-stroke"
   class="st0"
   d="M 1423.1819,199.23651 1307.4183,62.474686 c 0,0 -4.3863,-4.517027 -7.2552,-5.51685 -3.5366,-1.232523 -7.6781,-1.408449 -11.2334,-0.230917 -7.2662,2.406574 -14.4355,7.383435 -18.1376,14.082938 -5.7551,10.414703 -5.4106,23.772338 -3.5314,35.522073 5.101,31.89476 39.4409,56.3264 39.1815,88.62544 -0.068,8.42911 -0.5218,17.29494 -4.0462,24.94638 -4.5637,9.90775 -12.1142,18.85732 -21.1445,24.97652 -13.7622,9.32569 -30.6624,15.00858 -47.2967,15.82157 -217.902,5.87289 -435.89464,9.30732 -653.85222,12.77866 -1.52836,0.0232 -3.12355,0.12432 -4.73131,0.0477 -1.60776,-0.0766 -3.22529,-0.25867 -4.78988,-0.58506 -1.56459,-0.3264 -3.07625,-0.79712 -4.47229,-1.45102 -1.39604,-0.65391 -2.67646,-1.491 -3.77856,-2.55014 -3.24563,-3.11911 -3.48454,-8.45541 -3.8588,-12.94126 -1.94721,-23.33933 -0.35165,-70.78445 -0.35165,-70.78445"
   id="path00"
   sodipodi:nodetypes="ccaaaasaasssssssc" />
   <path
   vector-effect="non-scaling-stroke"
   class="st0"
   d="m 165.94463,644.26402 c 0,0 -29.73624,-19.02669 -44.94798,-27.97213 -4.18503,-2.46105 -8.3537,-4.9769 -12.73626,-7.06602 -4.78127,-2.27918 -9.742934,-4.17845 -14.738083,-5.94019 -5.407101,-1.90702 -11.013333,-3.2027 -16.457577,-5.00094 -3.997781,-1.32048 -9.65832,-0.6812 -11.89475,-4.24831 -2.319179,-3.6991 0.739077,-8.70767 1.408535,-13.02203 1.017382,-6.55658 2.415463,-13.05438 3.957216,-19.50782 1.407427,-5.89118 3.4031,-11.63081 4.827132,-17.51799 1.685422,-6.96781 2.454801,-14.15114 4.394317,-21.05254 1.426024,-5.07424 3.465071,-9.95673 5.30535,-14.89584 1.844584,-4.95066 3.496082,-9.99127 5.748579,-14.77016 1.972689,-4.18525 3.92389,-8.47043 6.773241,-12.11584 6.42495,-8.21997 14.25469,-15.46559 22.82251,-21.41877 3.70332,-2.57318 27.52708,-13.34161 41.55207,-19.43255 17.68548,-7.68066 36.24805,-13.31139 53.67501,-21.56183 10.40428,-4.92569 20.51164,-10.51752 30.26748,-16.62775 9.45923,-5.92446 19.06948,-11.84432 27.31532,-19.36644 8.38998,-7.65361 17.13814,-15.68907 22.16805,-25.8709 11.08167,-22.43216 15.58944,-73.42354 15.58944,-73.42354 l 0.67792,-118.44097 -0.0192,-78.29475 c 0,0 -5.74873,-33.348721 6.08539,-39.38039 16.63534,-8.478777 31.71435,21.041915 49.81964,25.605104 7.53469,1.899016 16.08403,3.309162 23.30673,0.443779 6.35679,-2.521858 11.10475,-8.508269 14.66603,-14.346575 2.56762,-4.209327 0.62338,-10.915948 4.35786,-14.135387 7.55153,-6.510067 19.59941,-4.476967 29.56966,-4.504995 11.6332,-0.0327 23.51785,1.313864 34.53064,5.062326 18.73684,6.377524 37.1291,15.736148 51.80452,29.016739 10.38476,9.397736 19.15805,21.320109 24.08009,34.432479 8.99112,23.95239 8.26658,76.30649 8.26658,76.30649"
   id="path01"
   sodipodi:nodetypes="caaaaaaaaaaaaaaaaaacccaaaaaaaaac" />
   <path
   vector-effect="non-scaling-stroke"
   class="st0"
   d="m 1423.1819,199.23651 c 0,0 17.9086,26.06406 23.1458,40.79555 4.008,11.27386 4.971,23.47211 5.9694,35.3955 0.8186,9.776 0,29.43063 0,29.43063 0,0 0.7707,140.3508 0,210.51984 -0.8083,73.58781 -1.7674,147.07368 -4.8493,220.72348 -0.2955,4.45245 -4.4356,7.72855 -7.6613,10.97765 -12.7697,12.86233 -27.6339,25.33911 -39.0977,34.9085 -2.7692,2.31156 -3.1508,6.90837 -3.2622,10.51378 -0.3488,11.29129 1.3124,20.8474 -0.7309,24.80089 -1.6707,3.23231 -5.1077,6.64428 -8.7445,6.53333 -31.5798,-0.96343 -87.5796,-1.23061 -87.3033,-0.5246 0,0 -548.42779,-0.53216 -725.09746,-0.31106 -44.16741,0.0553 -85.64372,-13.66096 -126.6124,-27.27841 -45.83968,-15.23651 -88.91543,-38.0258 -131.74892,-60.35784 -35.40707,-18.46014 -69.17591,-39.92148 -103.25969,-60.72371 -16.15861,-9.86203 -47.9848,-30.37602 -47.9848,-30.37602"
   id="path02"
   sodipodi:nodetypes="caacasssssscsaaac" />

<path
   vector-effect="non-scaling-stroke"
   class="st1"
   d="M 1423.1819,199.23651 1307.4183,62.474686 c 0,0 -4.3863,-4.517027 -7.2552,-5.51685 -3.5366,-1.232523 -7.6781,-1.408449 -11.2334,-0.230917 -7.2662,2.406574 -14.4355,7.383435 -18.1376,14.082938 -5.7551,10.414703 -5.4106,23.772338 -3.5314,35.522073 5.101,31.89476 39.4409,56.3264 39.1815,88.62544 -0.068,8.42911 -0.5218,17.29494 -4.0462,24.94638 -4.5637,9.90775 -12.1142,18.85732 -21.1445,24.97652 -13.7622,9.32569 -30.6624,15.00858 -47.2967,15.82157 -217.902,5.87289 -435.89464,9.30732 -653.85222,12.77866 -1.52836,0.0232 -3.12355,0.12432 -4.73131,0.0477 -1.60776,-0.0766 -3.22529,-0.25867 -4.78988,-0.58506 -1.56459,-0.3264 -3.07625,-0.79712 -4.47229,-1.45102 -1.39604,-0.65391 -2.67646,-1.491 -3.77856,-2.55014 -3.24563,-3.11911 -3.48454,-8.45541 -3.8588,-12.94126 -1.94721,-23.33933 -0.35165,-70.78445 -0.35165,-70.78445"
   id="path2"
   sodipodi:nodetypes="ccaaaasaasssssssc" /><path
   vector-effect="non-scaling-stroke"
   class="st2"
   d="m 165.94463,644.26402 c 0,0 -29.73624,-19.02669 -44.94798,-27.97213 -4.18503,-2.46105 -8.3537,-4.9769 -12.73626,-7.06602 -4.78127,-2.27918 -9.742934,-4.17845 -14.738083,-5.94019 -5.407101,-1.90702 -11.013333,-3.2027 -16.457577,-5.00094 -3.997781,-1.32048 -9.65832,-0.6812 -11.89475,-4.24831 -2.319179,-3.6991 0.739077,-8.70767 1.408535,-13.02203 1.017382,-6.55658 2.415463,-13.05438 3.957216,-19.50782 1.407427,-5.89118 3.4031,-11.63081 4.827132,-17.51799 1.685422,-6.96781 2.454801,-14.15114 4.394317,-21.05254 1.426024,-5.07424 3.465071,-9.95673 5.30535,-14.89584 1.844584,-4.95066 3.496082,-9.99127 5.748579,-14.77016 1.972689,-4.18525 3.92389,-8.47043 6.773241,-12.11584 6.42495,-8.21997 14.25469,-15.46559 22.82251,-21.41877 3.70332,-2.57318 27.52708,-13.34161 41.55207,-19.43255 17.68548,-7.68066 36.24805,-13.31139 53.67501,-21.56183 10.40428,-4.92569 20.51164,-10.51752 30.26748,-16.62775 9.45923,-5.92446 19.06948,-11.84432 27.31532,-19.36644 8.38998,-7.65361 17.13814,-15.68907 22.16805,-25.8709 11.08167,-22.43216 15.58944,-73.42354 15.58944,-73.42354 l 0.67792,-118.44097 -0.0192,-78.29475 c 0,0 -5.74873,-33.348721 6.08539,-39.38039 16.63534,-8.478777 31.71435,21.041915 49.81964,25.605104 7.53469,1.899016 16.08403,3.309162 23.30673,0.443779 6.35679,-2.521858 11.10475,-8.508269 14.66603,-14.346575 2.56762,-4.209327 0.62338,-10.915948 4.35786,-14.135387 7.55153,-6.510067 19.59941,-4.476967 29.56966,-4.504995 11.6332,-0.0327 23.51785,1.313864 34.53064,5.062326 18.73684,6.377524 37.1291,15.736148 51.80452,29.016739 10.38476,9.397736 19.15805,21.320109 24.08009,34.432479 8.99112,23.95239 8.26658,76.30649 8.26658,76.30649"
   id="path3"
   sodipodi:nodetypes="caaaaaaaaaaaaaaaaaacccaaaaaaaaac" /><path
   vector-effect="non-scaling-stroke"
   class="st3"
   d="m 1423.1819,199.23651 c 0,0 17.9086,26.06406 23.1458,40.79555 4.008,11.27386 4.971,23.47211 5.9694,35.3955 0.8186,9.776 0,29.43063 0,29.43063 0,0 0.7707,140.3508 0,210.51984 -0.8083,73.58781 -1.7674,147.07368 -4.8493,220.72348 -0.2955,4.45245 -4.4356,7.72855 -7.6613,10.97765 -12.7697,12.86233 -27.6339,25.33911 -39.0977,34.9085 -2.7692,2.31156 -3.1508,6.90837 -3.2622,10.51378 -0.3488,11.29129 1.3124,20.8474 -0.7309,24.80089 -1.6707,3.23231 -5.1077,6.64428 -8.7445,6.53333 -31.5798,-0.96343 -87.5796,-1.23061 -87.3033,-0.5246 0,0 -548.42779,-0.53216 -725.09746,-0.31106 -44.16741,0.0553 -85.64372,-13.66096 -126.6124,-27.27841 -45.83968,-15.23651 -88.91543,-38.0258 -131.74892,-60.35784 -35.40707,-18.46014 -69.17591,-39.92148 -103.25969,-60.72371 -16.15861,-9.86203 -47.9848,-30.37602 -47.9848,-30.37602"
   id="path4"
   sodipodi:nodetypes="caacasssssscsaaac" />
</g>
</svg>
