<?xml version="1.0" encoding="utf-8"?>
<svg xmlns="http://www.w3.org/2000/svg" xmlns:xlink="http://www.w3.org/1999/xlink" preserveAspectRatio="xMidYMid meet" height="100%" viewBox="-660 -760 1320 1520" class="mx-auto max-w-xs">
    <polygon vector-effect="non-scaling-stroke" fill="none" style="stroke: #374151; stroke-width:8" points=" -410,156 -415,148 -419,141 -425,131 -429,123 -433,115 -437,108 -442,100 -446,92 -450,85 -454,78 -458,70 -463,62 -467,54 -473,44 -477,36 -482,28 -486,20 -490,12 -495,5 -500,-5 -505,-12 -509,-20 -516,-32 -520,-40 -525,-47 -530,-58 -535,-66 -539,-74 -544,-81 -548,-89 -554,-99 -559,-107 -563,-115 -568,-123 -572,-131 -577,-138 -583,-148 -587,-156 -591,-163 -595,-170 -599,-177 -605,-187 -609,-193 -612,-200 -615,-207 -618,-213 -620,-218 -622,-224 -623,-230 -624,-236 -625,-242 -625,-247 -625,-254 -624,-259 -623,-264 -622,-268 -620,-273 -618,-279 -616,-283 -613,-287 -610,-291 -607,-294 -602,-299 -599,-302 -595,-305 -591,-307 -585,-310 -580,-312 -576,-313 -571,-315 -566,-316 -561,-316 -555,-317 -548,-316 -543,-316 -538,-315 -533,-314 -527,-312 -518,-309 -513,-306 -508,-303 -503,-300 -498,-297 -493,-294 -487,-289 -482,-285 -478,-281 -473,-276 -468,-272 -464,-268 -457,-262 -452,-257 -447,-253 -442,-249 -437,-245 -429,-240 -424,-236 -418,-233 -412,-230 -406,-227 -400,-225 -393,-223 -384,-221 -379,-221 -371,-221 -364,-221 -359,-222 -354,-224 -349,-225 -344,-227 -338,-230 -334,-233 -329,-236 -325,-239 -322,-242 -319,-245 -315,-249 -312,-253 -309,-258 -307,-262 -305,-267 -302,-274 -301,-279 -299,-284 -298,-290 -298,-295 -297,-301 -297,-308 -297,-314 -297,-320 -298,-326 -298,-335 -299,-341 -300,-349 -300,-356 -301,-362 -302,-369 -302,-375 -302,-384 -303,-391 -302,-401 -302,-408 -301,-414 -299,-427 -297,-434 -296,-440 -293,-447 -291,-454 -287,-462 -284,-468 -280,-475 -276,-481 -272,-487 -268,-493 -262,-501 -258,-507 -253,-512 -248,-518 -243,-524 -239,-528 -234,-534 -229,-539 -224,-545 -218,-551 -213,-556 -206,-564 -201,-570 -196,-576 -191,-582 -184,-589 -178,-595 -173,-601 -168,-607 -162,-613 -157,-619 -153,-624 -147,-630 -142,-636 -137,-642 -131,-648 -126,-655 -121,-661 -116,-666 -111,-672 -105,-678 -100,-684 -95,-690 -89,-696 -82,-703 -76,-708 -71,-712 -65,-716 -59,-719 -51,-723 -43,-726 -37,-728 -31,-729 -26,-730 -21,-730 -15,-730 -9,-730 -3,-729 2,-728 7,-727 15,-724 21,-722 27,-719 34,-715 39,-711 44,-708 49,-704 54,-700 60,-694 65,-689 69,-684 73,-679 77,-674 80,-669 82,-663 87,-649 89,-643 90,-637 91,-631 91,-623 91,-616 90,-610 89,-604 88,-598 87,-593 85,-587 82,-581 79,-575 76,-570 73,-565 68,-559 64,-554 60,-550 55,-545 51,-541 46,-536 42,-533 37,-528 32,-524 27,-519 22,-515 17,-511 13,-507 7,-503 2,-498 -2,-494 -8,-489 -13,-484 -20,-478 -20,-478 -25,-473 -30,-468 -35,-463 -39,-458 -43,-454 -47,-448 -50,-444 -53,-440 -55,-436 -57,-432 -59,-429 -60,-425 -61,-421 -62,-418 -62,-414 -62,-411 -62,-407 -61,-403 -60,-400 -59,-397 -58,-395 -56,-392 -54,-389 -52,-387 -50,-385 -47,-383 -45,-381 -42,-380 -38,-379 -35,-378 -32,-377 -29,-377 -26,-377 -22,-377 -20,-377 -14,-378 -11,-378 -7,-379 -3,-381 -0,-382 3,-383 7,-384 11,-386 15,-387 19,-389 25,-392 29,-394 34,-396 38,-398 43,-400 49,-403 54,-406 59,-408 64,-411 69,-413 74,-416 81,-420 86,-422 91,-425 97,-428 102,-431 108,-433 113,-436 119,-439 124,-441 130,-444 136,-447 144,-451 150,-454 157,-456 163,-459 169,-462 178,-466 184,-468 191,-471 197,-474 204,-477 211,-479 220,-482 226,-483 233,-484 239,-485 246,-485 252,-485 259,-485 265,-484 270,-482 275,-481 279,-479 285,-476 289,-474 293,-471 296,-469 299,-466 302,-462 305,-459 308,-454 310,-450 312,-446 314,-442 315,-438 316,-432 317,-427 317,-423 317,-418 317,-413 316,-407 314,-402 313,-398 311,-393 309,-389 305,-383 303,-379 299,-375 296,-371 292,-367 289,-363 283,-358 277,-352 273,-348 269,-343 262,-335 258,-331 254,-326 250,-321 246,-316 243,-311 238,-303 235,-298 232,-292 229,-286 226,-280 222,-272 219,-266 217,-259 215,-253 213,-246 211,-239 208,-230 206,-223 204,-217 201,-210 198,-204 194,-195 190,-189 184,-181 179,-175 174,-170 167,-164 161,-159 155,-155 149,-151 141,-147 135,-144 128,-141 121,-139 114,-137 107,-136 98,-135 91,-134 83,-133 76,-133 69,-133 62,-132 55,-131 46,-130 40,-129 34,-127 28,-126 22,-123 17,-121 13,-119 9,-116 5,-113 2,-110 -0,-108 -3,-105 -5,-101 -8,-98 -10,-94 -12,-89 -13,-85 -14,-80 -15,-76 -16,-72 -16,-67 -16,-63 -15,-57 -14,-53 -13,-48 -11,-44 -10,-39 -8,-36 -6,-31 -3,-27 -0,-23 2,-19 7,-13 10,-9 14,-6 18,-2 22,1 27,4 33,9 38,12 43,15 48,18 54,21 59,24 67,28 72,30 78,33 84,35 90,38 98,41 105,43 111,46 117,48 124,51 129,52 136,55 142,57 149,59 156,60 163,62 170,64 179,66 186,67 194,68 201,69 207,70 214,71 222,71 229,72 237,72 244,72 251,72 258,72 266,72 273,72 281,71 289,70 299,69 310,68 318,67 326,66 334,65 344,63 352,62 360,61 367,60 375,58 383,57 390,56 398,54 398,54 406,53 414,52 422,51 437,49 445,48 453,48 461,48 469,48 480,49 488,50 496,51 504,53 514,57 521,60 528,63 535,66 542,70 549,75 555,80 563,86 568,92 574,98 579,103 583,110 588,116 592,122 598,131 602,138 606,145 609,152 612,159 616,169 618,177 620,184 621,192 622,199 622,207 622,217 622,225 621,233 619,240 617,248 615,255 612,264 609,271 605,278 602,285 598,292 594,298 591,304 587,310 583,317 579,323 574,330 570,336 564,345 559,351 554,356 549,362 543,367 537,371 529,377 523,380 516,383 509,386 503,389 497,391 490,392 483,394 472,395 465,395 457,395 448,394 440,393 433,392 426,391 419,389 409,387 402,385 395,382 388,380 381,378 374,375 364,372 357,369 350,367 342,365 335,362 327,360 317,357 310,355 302,354 294,352 287,350 279,349 269,347 261,346 254,346 246,346 239,347 230,348 224,350 217,352 211,354 204,357 198,360 188,367 182,371 177,375 172,380 168,385 163,390 158,397 154,403 151,409 147,415 144,421 140,430 137,436 134,443 131,449 128,456 125,462 123,468 120,475 117,482 114,489 111,495 107,505 104,511 101,518 98,525 94,533 92,538 89,545 86,552 82,560 79,567 76,574 73,581 69,590 65,598 62,605 59,612 55,619 52,626 49,632 45,640 42,647 39,654 35,662 30,671 27,678 23,685 19,691 16,696 12,701 6,707 2,711 -1,715 -6,718 -10,721 -14,723 -18,725 -23,727 -27,728 -32,729 -36,730 -43,730 -47,730 -52,730 -59,729 -64,728 -69,727 -73,725 -77,723 -82,721 -86,718 -91,715 -96,711 -100,707 -104,703 -108,699 -111,695 -114,690 -117,686 -120,681 -123,676 -125,671 -128,666 -131,660 -133,655 -136,650 -139,644 -142,639 -145,633 -148,627 -152,620 -155,614 -158,608 -162,602 -165,596 -168,590 -171,585 -175,579 -178,573 -182,567 -185,561 -189,555 -192,548 -197,540 -200,533 -204,527 -208,520 -213,512 -216,505 -222,495 -225,488 -229,481 -234,472 -238,466 -242,459 -245,452 -249,445 -254,436 -258,429 -262,422 -266,415 -272,404 -277,395 -281,388 -285,380 -289,373 -293,366 -296,360 -300,353 -304,345 -308,338 -312,331 -317,324 -321,317 -326,307 -330,299 -334,292 -339,285 -343,277 -347,270 -350,264 -354,256 -358,249 -362,241 -367,234 -371,226 -374,220 -379,213 -383,205 -387,198 -391,190 -396,182 -400,175 -405,165 -408,161 "></polygon>
    <polyline vector-effect="non-scaling-stroke" fill="none" style="stroke: #EF4444; stroke-width:2" points="-410,156 -415,148 -419,141 -425,131 -429,123 -433,115 -437,108 -442,100 -446,92 -450,85 -454,78 -458,70 -463,62 -467,54 -473,44 -477,36 -482,28 -486,20 -490,12 -495,5 -500,-5 -505,-12 -509,-20 -516,-32 -520,-40 -525,-47 -530,-58 -535,-66 -539,-74 -544,-81 -548,-89 -554,-99 -559,-107 -563,-115 -568,-123 -572,-131 -577,-138 -583,-148 -587,-156 -591,-163 -595,-170 -599,-177 -605,-187 -609,-193 -612,-200 -615,-207 -618,-213 -620,-218 -622,-224 -623,-230 -624,-236 -625,-242 -625,-247 -625,-254 -624,-259 -623,-264 -622,-268 -620,-273 -618,-279 -616,-283 -613,-287 -610,-291 -607,-294 -602,-299 -599,-302 -595,-305 -591,-307 -585,-310 -580,-312 -576,-313 -571,-315 -566,-316 -561,-316 -555,-317 -548,-316 -543,-316 -538,-315 -533,-314 -527,-312 -518,-309 -513,-306 -508,-303 -503,-300 -498,-297 -493,-294 -487,-289 -482,-285 -478,-281 -473,-276 -468,-272 -464,-268 -457,-262 -452,-257 -447,-253 -442,-249 -437,-245 -429,-240 -424,-236 -418,-233 -412,-230 -406,-227 -400,-225 -393,-223 -384,-221 -379,-221 -371,-221 -364,-221 -359,-222 -354,-224 -349,-225 -344,-227 -338,-230 -334,-233 -329,-236 -325,-239 -322,-242 -319,-245 -315,-249 -312,-253 -309,-258 -307,-262 -305,-267 -302,-274 -301,-279 -299,-284 -298,-290 -298,-295 -297,-301 -297,-308 -297,-314 -297,-320 -298,-326 -298,-335 -299,-341 -300,-349 -300,-356 -301,-362 -302,-369 -302,-375 -302,-384 -303,-391 -302,-401 -302,-408 -301,-414 -299,-427 -297,-434 -296,-440 -293,-447 -291,-454 -287,-462 -284,-468 -280,-475 -276,-481 -272,-487 -268,-493 -262,-501 -258,-507 -253,-512 -248,-518 -243,-524 -239,-528 -234,-534 -229,-539 -224,-545 -218,-551 -213,-556 -206,-564 -201,-570 -196,-576 -191,-582 -184,-589 -178,-595 -173,-601 -168,-607 -162,-613 -157,-619 -153,-624 -147,-630 -142,-636 -137,-642 -131,-648 -126,-655 -121,-661 -116,-666 -111,-672 -105,-678 -100,-684 -95,-690 -89,-696 -82,-703 -76,-708 -71,-712 -65,-716 -59,-719 -51,-723 -43,-726 -37,-728 -31,-729 -26,-730 -21,-730 -15,-730 -9,-730 -3,-729 2,-728 7,-727 15,-724 21,-722 27,-719 34,-715 39,-711 44,-708 49,-704 54,-700 60,-694 65,-689 69,-684 73,-679 77,-674 80,-669 82,-663 87,-649 89,-643 90,-637 91,-631 91,-623 91,-616 90,-610 89,-604 88,-598 87,-593 85,-587 82,-581 79,-575 76,-570 73,-565 68,-559 64,-554 60,-550 55,-545 51,-541 46,-536 42,-533 37,-528 32,-524 27,-519 22,-515 17,-511 13,-507 7,-503 2,-498 -2,-494 -8,-489 -13,-484 -20,-478"></polyline>
    <polyline vector-effect="non-scaling-stroke" fill="none" style="stroke: #3B82F6; stroke-width:2" points="-20,-478 -25,-473 -30,-468 -35,-463 -39,-458 -43,-454 -47,-448 -50,-444 -53,-440 -55,-436 -57,-432 -59,-429 -60,-425 -61,-421 -62,-418 -62,-414 -62,-411 -62,-407 -61,-403 -60,-400 -59,-397 -58,-395 -56,-392 -54,-389 -52,-387 -50,-385 -47,-383 -45,-381 -42,-380 -38,-379 -35,-378 -32,-377 -29,-377 -26,-377 -22,-377 -20,-377 -14,-378 -11,-378 -7,-379 -3,-381 -0,-382 3,-383 7,-384 11,-386 15,-387 19,-389 25,-392 29,-394 34,-396 38,-398 43,-400 49,-403 54,-406 59,-408 64,-411 69,-413 74,-416 81,-420 86,-422 91,-425 97,-428 102,-431 108,-433 113,-436 119,-439 124,-441 130,-444 136,-447 144,-451 150,-454 157,-456 163,-459 169,-462 178,-466 184,-468 191,-471 197,-474 204,-477 211,-479 220,-482 226,-483 233,-484 239,-485 246,-485 252,-485 259,-485 265,-484 270,-482 275,-481 279,-479 285,-476 289,-474 293,-471 296,-469 299,-466 302,-462 305,-459 308,-454 310,-450 312,-446 314,-442 315,-438 316,-432 317,-427 317,-423 317,-418 317,-413 316,-407 314,-402 313,-398 311,-393 309,-389 305,-383 303,-379 299,-375 296,-371 292,-367 289,-363 283,-358 277,-352 273,-348 269,-343 262,-335 258,-331 254,-326 250,-321 246,-316 243,-311 238,-303 235,-298 232,-292 229,-286 226,-280 222,-272 219,-266 217,-259 215,-253 213,-246 211,-239 208,-230 206,-223 204,-217 201,-210 198,-204 194,-195 190,-189 184,-181 179,-175 174,-170 167,-164 161,-159 155,-155 149,-151 141,-147 135,-144 128,-141 121,-139 114,-137 107,-136 98,-135 91,-134 83,-133 76,-133 69,-133 62,-132 55,-131 46,-130 40,-129 34,-127 28,-126 22,-123 17,-121 13,-119 9,-116 5,-113 2,-110 -0,-108 -3,-105 -5,-101 -8,-98 -10,-94 -12,-89 -13,-85 -14,-80 -15,-76 -16,-72 -16,-67 -16,-63 -15,-57 -14,-53 -13,-48 -11,-44 -10,-39 -8,-36 -6,-31 -3,-27 -0,-23 2,-19 7,-13 10,-9 14,-6 18,-2 22,1 27,4 33,9 38,12 43,15 48,18 54,21 59,24 67,28 72,30 78,33 84,35 90,38 98,41 105,43 111,46 117,48 124,51 129,52 136,55 142,57 149,59 156,60 163,62 170,64 179,66 186,67 194,68 201,69 207,70 214,71 222,71 229,72 237,72 244,72 251,72 258,72 266,72 273,72 281,71 289,70 299,69 310,68 318,67 326,66 334,65 344,63 352,62 360,61 367,60 375,58 383,57 390,56 398,54"></polyline>
    <polyline vector-effect="non-scaling-stroke" fill="none" style="stroke: #FBBF24; stroke-width:2" points="398,54 406,53 414,52 422,51 437,49 445,48 453,48 461,48 469,48 480,49 488,50 496,51 504,53 514,57 521,60 528,63 535,66 542,70 549,75 555,80 563,86 568,92 574,98 579,103 583,110 588,116 592,122 598,131 602,138 606,145 609,152 612,159 616,169 618,177 620,184 621,192 622,199 622,207 622,217 622,225 621,233 619,240 617,248 615,255 612,264 609,271 605,278 602,285 598,292 594,298 591,304 587,310 583,317 579,323 574,330 570,336 564,345 559,351 554,356 549,362 543,367 537,371 529,377 523,380 516,383 509,386 503,389 497,391 490,392 483,394 472,395 465,395 457,395 448,394 440,393 433,392 426,391 419,389 409,387 402,385 395,382 388,380 381,378 374,375 364,372 357,369 350,367 342,365 335,362 327,360 317,357 310,355 302,354 294,352 287,350 279,349 269,347 261,346 254,346 246,346 239,347 230,348 224,350 217,352 211,354 204,357 198,360 188,367 182,371 177,375 172,380 168,385 163,390 158,397 154,403 151,409 147,415 144,421 140,430 137,436 134,443 131,449 128,456 125,462 123,468 120,475 117,482 114,489 111,495 107,505 104,511 101,518 98,525 94,533 92,538 89,545 86,552 82,560 79,567 76,574 73,581 69,590 65,598 62,605 59,612 55,619 52,626 49,632 45,640 42,647 39,654 35,662 30,671 27,678 23,685 19,691 16,696 12,701 6,707 2,711 -1,715 -6,718 -10,721 -14,723 -18,725 -23,727 -27,728 -32,729 -36,730 -43,730 -47,730 -52,730 -59,729 -64,728 -69,727 -73,725 -77,723 -82,721 -86,718 -91,715 -96,711 -100,707 -104,703 -108,699 -111,695 -114,690 -117,686 -120,681 -123,676 -125,671 -128,666 -131,660 -133,655 -136,650 -139,644 -142,639 -145,633 -148,627 -152,620 -155,614 -158,608 -162,602 -165,596 -168,590 -171,585 -175,579 -178,573 -182,567 -185,561 -189,555 -192,548 -197,540 -200,533 -204,527 -208,520 -213,512 -216,505 -222,495 -225,488 -229,481 -234,472 -238,466 -242,459 -245,452 -249,445 -254,436 -258,429 -262,422 -266,415 -272,404 -277,395 -281,388 -285,380 -289,373 -293,366 -296,360 -300,353 -304,345 -308,338 -312,331 -317,324 -321,317 -326,307 -330,299 -334,292 -339,285 -343,277 -347,270 -350,264 -354,256 -358,249 -362,241 -367,234 -371,226 -374,220 -379,213 -383,205 -387,198 -391,190 -396,182 -400,175 -405,165 -408,161"></polyline>
    <circle id="minimapCarCircle" cx="-411" cy="157" r="17" stroke="black" stroke-width="13" fill="white"></circle>
</svg>
